<?xml version="1.0" encoding="UTF-8" standalone="no"?>
<!-- Created with Inkscape (http://www.inkscape.org/) -->

<svg
   width="16.422443mm"
   height="16.466129mm"
   viewBox="0 0 16.422443 16.466129"
   version="1.1"
   id="svg1"
   xmlns="http://www.w3.org/2000/svg"
   xmlns:svg="http://www.w3.org/2000/svg">
  <defs
     id="defs1" />
  <g
     id="layer1"
     transform="translate(-45.000004,-189.99999)">
    <g
       id="g25">
      <path
         id="rect28"
         style="fill:none;stroke:#ffffff;stroke-width:0.79375;stroke-dasharray:none"
         d="m 53.396877,192.39687 -1e-6,8.00002 c 0,0.55399 -0.445998,0.99999 -0.999995,0.99999 h -6.00001 c -0.553997,0 -0.999995,-0.446 -0.999995,-0.99999 v -9.00002 c 0,-0.55399 0.445998,-0.99999 0.999995,-0.99999 l 5.000006,-1e-5 z" />
      <path
         style="fill:none;fill-opacity:1;stroke:#ffffff;stroke-width:0.529167;stroke-dasharray:none;stroke-opacity:1"
         d="m 51.396877,190.39687 10e-7,2 h 1.999998"
         id="path28" />
      <path
         style="fill:none;fill-opacity:1;stroke:#ffffff;stroke-width:0.79375;stroke-dasharray:none;stroke-opacity:1"
         d="m 46.926044,193.39687 h 5.000001"
         id="path29" />
      <path
         style="fill:none;fill-opacity:1;stroke:#ffffff;stroke-width:0.79375;stroke-dasharray:none;stroke-opacity:1"
         d="m 46.926044,195.39687 h 5.000001"
         id="path30" />
      <path
         style="fill:none;fill-opacity:1;stroke:#ffffff;stroke-width:0.79375;stroke-dasharray:none;stroke-opacity:1"
         d="m 46.926044,197.39687 h 5.000001"
         id="path31" />
      <path
         style="fill:none;fill-opacity:1;stroke:#ffffff;stroke-width:0.79375;stroke-dasharray:none;stroke-opacity:1"
         d="m 46.926044,199.39687 h 5.000001"
         id="path32" />
    </g>
    <g
       id="text6"
       style="font-size:3.52778px;font-family:'Product Sans Black';-inkscape-font-specification:'Product Sans Black, Normal';letter-spacing:0px;fill:#ffffff;fill-opacity:0.871134;stroke-width:0"
       aria-label=".png&#10;.xlsx">
      <path
         style="font-size:3.52778px"
         d="m 54.508,202.02117 q -0.141111,0 -0.239889,-0.0988 -0.09878,-0.0988 -0.09878,-0.23989 0,-0.14111 0.09878,-0.23989 0.09878,-0.0988 0.239889,-0.0988 0.141111,0 0.239889,0.0988 0.09878,0.0988 0.09878,0.23989 0,0.14111 -0.09878,0.23989 -0.09878,0.0988 -0.239889,0.0988 z m 1.185334,-1.55928 h 0.03528 q 0.05997,-0.10231 0.183445,-0.17286 0.127,-0.0741 0.3175,-0.0741 0.165805,0 0.3175,0.067 0.151694,0.067 0.264583,0.1905 0.116417,0.11995 0.183445,0.28928 0.06703,0.16933 0.06703,0.37394 0,0.20462 -0.06703,0.37395 -0.06703,0.16933 -0.183445,0.2928 -0.112889,0.11995 -0.264583,0.18698 -0.151695,0.067 -0.3175,0.067 -0.1905,0 -0.3175,-0.0705 -0.123472,-0.0741 -0.183445,-0.17639 h -0.03528 l 0.03528,0.24694 v 0.70556 h -0.529166 v -2.49061 h 0.493889 z m 0.419805,0.24694 q -0.08467,0 -0.162278,0.0317 -0.07408,0.0282 -0.134055,0.0847 -0.05644,0.0564 -0.09172,0.13406 -0.03175,0.0776 -0.03175,0.17638 0,0.0988 0.03175,0.17992 0.03528,0.0776 0.09172,0.13406 0.05997,0.0529 0.134055,0.0847 0.07761,0.0282 0.162278,0.0282 0.08467,0 0.15875,-0.0282 0.07761,-0.0318 0.134056,-0.0847 0.05997,-0.0564 0.09172,-0.13406 0.03528,-0.0811 0.03528,-0.17992 0,-0.0988 -0.03528,-0.17638 -0.03175,-0.0776 -0.09172,-0.13406 -0.05645,-0.0564 -0.134056,-0.0847 -0.07408,-0.0317 -0.15875,-0.0317 z m 1.721558,-0.21872 h 0.03528 q 0.176388,-0.27517 0.529166,-0.27517 0.324556,0 0.483306,0.20814 0.15875,0.20814 0.15875,0.54681 V 202 H 58.51203 v -0.97014 q 0,-0.14111 -0.06703,-0.2293 -0.06703,-0.0917 -0.208139,-0.0917 -0.179916,0 -0.275166,0.13759 -0.09172,0.13758 -0.09172,0.35983 V 202 h -0.529167 v -1.72861 h 0.493889 z m 2.384781,2.32833 q -0.186972,0 -0.335139,-0.0494 -0.148166,-0.0459 -0.261055,-0.12348 -0.109361,-0.0741 -0.183445,-0.16933 -0.07055,-0.0917 -0.105833,-0.18697 l 0.508,-0.20109 q 0.04939,0.13406 0.155222,0.19756 0.105834,0.067 0.22225,0.067 0.1905,0 0.306917,-0.12347 0.119944,-0.12348 0.119944,-0.35278 v -0.0952 h -0.03528 Q 60.448784,202 60.117173,202 q -0.148167,0 -0.292806,-0.06 -0.144639,-0.0635 -0.261055,-0.17639 -0.116417,-0.11642 -0.186973,-0.28222 -0.07055,-0.16581 -0.07055,-0.37395 0,-0.20814 0.07055,-0.37394 0.07056,-0.16581 0.186973,-0.2787 0.116416,-0.11641 0.261055,-0.17639 0.144639,-0.0635 0.292806,-0.0635 0.331611,0 0.493888,0.21873 h 0.03528 v -0.16228 h 0.508 v 1.58044 q 0,0.21167 -0.06703,0.38806 -0.0635,0.17992 -0.186972,0.30692 -0.119944,0.13052 -0.292805,0.20108 -0.172861,0.0705 -0.388056,0.0705 z m 0.02117,-1.29822 q 0.07408,0 0.144639,-0.0247 0.07408,-0.0282 0.130527,-0.0776 0.05997,-0.0529 0.09525,-0.13053 0.03528,-0.0776 0.03528,-0.17992 0,-0.1023 -0.03528,-0.17991 -0.03528,-0.0776 -0.09525,-0.127 -0.05644,-0.0529 -0.130527,-0.0776 -0.07056,-0.0282 -0.144639,-0.0282 -0.07408,0 -0.148167,0.0282 -0.07055,0.0247 -0.130528,0.0776 -0.05644,0.0494 -0.09172,0.127 -0.03528,0.0776 -0.03528,0.17991 0,0.10231 0.03528,0.17992 0.03528,0.0776 0.09172,0.13053 0.05997,0.0494 0.130528,0.0776 0.07408,0.0247 0.148167,0.0247 z"
         id="path18" />
      <path
         style="font-size:3.52778px"
         d="m 54.508,206.43089 q -0.141111,0 -0.239889,-0.0988 -0.09878,-0.0988 -0.09878,-0.23988 0,-0.14112 0.09878,-0.23989 0.09878,-0.0988 0.239889,-0.0988 0.141111,0 0.239889,0.0988 0.09878,0.0988 0.09878,0.23989 0,0.14111 -0.09878,0.23988 -0.09878,0.0988 -0.239889,0.0988 z m 1.132417,-0.89958 -0.592667,-0.8502 h 0.635 l 0.261056,0.41628 h 0.03528 l 0.239889,-0.41628 h 0.656166 l -0.606778,0.8502 0.60325,0.87842 h -0.627944 l -0.271639,-0.41981 h -0.03528 l -0.264583,0.41981 h -0.627944 z m 1.460499,0.87842 v -2.52589 h 0.529167 v 2.52589 z m 1.61925,0.0564 q -0.179916,0 -0.3175,-0.0423 -0.137583,-0.0423 -0.239889,-0.10936 -0.09878,-0.0706 -0.165805,-0.15875 -0.06703,-0.0917 -0.102306,-0.18345 l 0.47625,-0.20108 q 0.04939,0.11994 0.137584,0.17639 0.08819,0.0529 0.211666,0.0529 0.105834,0 0.162278,-0.0317 0.05997,-0.0353 0.05997,-0.0882 0,-0.06 -0.05644,-0.0917 -0.05645,-0.0353 -0.179917,-0.0635 l -0.236361,-0.0494 q -0.08467,-0.0176 -0.172861,-0.0565 -0.08819,-0.0388 -0.162278,-0.1023 -0.07408,-0.0635 -0.119944,-0.14817 -0.04586,-0.0882 -0.04586,-0.20108 0,-0.12347 0.05292,-0.22225 0.05644,-0.10231 0.151695,-0.17286 0.09525,-0.0706 0.225778,-0.10936 0.130527,-0.0388 0.28575,-0.0388 0.268111,0 0.462138,0.0952 0.194028,0.0917 0.292806,0.31044 l -0.455083,0.18698 q -0.04586,-0.0917 -0.130528,-0.13406 -0.08114,-0.0423 -0.165806,-0.0423 -0.09172,0 -0.148166,0.0317 -0.05645,0.0318 -0.05645,0.0776 0,0.0494 0.05645,0.0811 0.05997,0.0282 0.144639,0.0494 l 0.268111,0.0635 q 0.264583,0.0635 0.395111,0.20461 0.130528,0.14111 0.130528,0.33161 0,0.11642 -0.05645,0.22225 -0.05292,0.10583 -0.155222,0.18697 -0.09878,0.0811 -0.239889,0.127 -0.137583,0.0494 -0.306917,0.0494 z m 1.467555,-0.93486 -0.592667,-0.8502 h 0.635 l 0.261056,0.41628 h 0.03528 l 0.239889,-0.41628 h 0.656166 l -0.606778,0.8502 0.60325,0.87842 h -0.627944 l -0.271639,-0.41981 h -0.03528 l -0.264583,0.41981 h -0.627944 z"
         id="path19" />
    </g>
  </g>
</svg>
