<?xml version="1.0" encoding="UTF-8"?>
<!-- Created with Inkscape (http://www.inkscape.org/) -->
<svg width="169.77mm" height="104.89mm" version="1.1" viewBox="-100 0 169.77 104.89" xml:space="preserve" xmlns="http://www.w3.org/2000/svg" xmlns:xlink="http://www.w3.org/1999/xlink"><defs><linearGradient id="linearGradient38"><stop stop-color="#4a5a93" offset="0"/><stop stop-color="#232b43" offset=".90706"/></linearGradient><filter id="filter148" x="-.22381" y="-.3861" width="1.4476" height="1.7722" color-interpolation-filters="sRGB"><feGaussianBlur stdDeviation="11.519312"/></filter><linearGradient id="linearGradient2" x1="73.202" x2="71.903" y1="158.11" y2="140.36" gradientTransform="matrix(1.6535 0 0 1.6535 -203.35 -342.13)" gradientUnits="userSpaceOnUse"><stop stop-color="#00749f" stop-opacity=".85098" offset="0"/><stop stop-color="#00b093" stop-opacity=".85098" offset=".65509"/></linearGradient><linearGradient id="linearGradient4" x1="73.202" x2="71.903" y1="158.11" y2="140.36" gradientTransform="matrix(1.6535 0 0 1.6535 -203.35 -342.13)" gradientUnits="userSpaceOnUse"><stop stop-color="#00749f" stop-opacity=".85098" offset="0"/><stop stop-color="#00b093" stop-opacity=".85098" offset="1"/></linearGradient><linearGradient id="linearGradient39" x1="179.26" x2="-8.4038" y1="303.48" y2="236.53" gradientUnits="userSpaceOnUse" xlink:href="#linearGradient38"/></defs><g transform="translate(80.905 116.27)"><text transform="matrix(.29786 0 0 .29786 -131.95 -85.341)" fill="#000000" fill-opacity=".87113" font-family="'Segoe UI Symbol'" font-size="15.111px" letter-spacing="0px" stroke-width="0" style="font-variant-caps:normal;font-variant-east-asian:normal;font-variant-ligatures:normal;font-variant-numeric:normal;shape-inside:url(#rect16);white-space:pre" xml:space="preserve"/><text transform="matrix(.29786 0 0 .29786 -131.95 -85.341)" fill="#000000" fill-opacity=".87113" font-family="'Segoe UI Symbol'" font-size="15.111px" letter-spacing="0px" stroke-width="0" style="font-variant-caps:normal;font-variant-east-asian:normal;font-variant-ligatures:normal;font-variant-numeric:normal;shape-inside:url(#rect19);white-space:pre" xml:space="preserve"/><g transform="matrix(.29818 0 0 .29818 -98.079 -63.761)"><g transform="matrix(.73299 0 0 .73299 -38.455 3.1799)"><g><path transform="matrix(1.6535 0 0 1.6535 -202.67 -363.9)" d="m24.272 198.62 62.354-36 62.354 36-62.354 36z" filter="url(#filter148)" opacity=".5694" stroke="#000" stroke-width=".26458" style="mix-blend-mode:normal"/><g stroke-width="2.6249"><path d="m-108.8-95.995 48.687-28.109v8.2675l-44.391 22.322z" opacity=".46455" stroke="#000"/><path d="m-214.76-95.995c0 0.78736 154.06 89.288 154.65 89.288s154.65-88.469 154.65-89.289c0-0.81957-153.83-89.289-154.65-89.289-0.82476 2e-5 -154.65 88.501-154.65 89.289zm206.2 59.526-154.65-89.288m206.2 59.526-154.65-89.289m-6.6e-4 119.05 154.65-89.289m-206.2 59.526 154.65-89.289" fill="#e0e1e1" stroke="#363636"/><path d="m-214.76-95.995c-1.6e-4 6.614 0 19.842 0 19.842l154.65 89.289 154.65-89.289s0-13.228 3.32e-4 -19.842c-3.32e-4 -1.6535-154.65 89.289-154.65 89.289s-154.65-90.942-154.65-89.289z" fill="#808080" stroke="#363636"/></g></g><path d="m-60.113-6.7064 1.66e-4 20.352" fill="none" stroke="#363636" stroke-width="2.6249"/><g><g><g stroke-width=".26249"><path d="m-108.8-95.995 4.2959 2.4802 44.391-25.629-1.66e-4 -4.9604z" fill="#999" stroke="#999"/><path d="m-60.113-124.1 1.66e-4 4.9604 44.391 25.629 4.2958-2.4802z" fill="#ccc" stroke="#ccc"/><path d="m-104.5-93.515 44.391-25.629 44.391 25.629-44.391 25.629z" fill="url(#linearGradient2)" stroke="url(#linearGradient4)"/></g><path d="m-205.76-239.33" fill="#fce186" opacity=".63325" stroke="#000" stroke-width=".83166"/><path d="m-204.85-238.97" fill="#fce186" opacity=".63325" stroke="#000" stroke-width=".83166"/></g><g transform="matrix(1.6535 0 0 1.6535 149.6 -539.31)" fill="url(#linearGradient39)" stroke-width="1.0583" aria-label="2D COMBO
SELECTOR"><path d="m-1.6558 253.89h9.0664v4.5156h-16.369v-4.6567q2.1167-2.0814 3.9158-3.8453 0.77611-0.74084 1.5522-1.517 0.74083-0.77611 1.3758-1.4111 0.67028-0.67028 1.1642-1.1642 0.52917-0.52917 0.77611-0.81139 1.0231-1.1289 1.4464-1.9756 0.42333-0.88194 0.42333-1.905 0-1.023-0.77611-1.7286-0.74083-0.74083-2.0814-0.74083-1.3406 0-2.1519 0.77611-0.77611 0.74083-1.1642 1.9756l-4.7978-1.9756q0.3175-1.0936 0.98778-2.1167 0.67028-1.0231 1.6933-1.7992 1.0231-0.81139 2.3989-1.3053 1.4111-0.49389 3.1044-0.49389 1.905 0 3.4219 0.56445 1.5169 0.52917 2.54 1.4817 1.0583 0.9525 1.6228 2.2578 0.56444 1.3053 0.56444 2.8222 0 2.1872-1.0231 4.057-0.98778 1.8344-2.7869 3.6336l-5.08 5.0094zm13.688-20.743h8.9253q3.0339 0 5.4681 0.91722 2.4342 0.91723 4.1275 2.5753 1.6933 1.6581 2.5753 3.9864 0.91722 2.3283 0.91722 5.1506 0 2.8222-0.91722 5.1506-0.88194 2.3283-2.5753 3.9864-1.6933 1.6581-4.1275 2.5753-2.4342 0.91723-5.4681 0.91723h-8.9253zm8.6431 20.038q2.0461 0 3.5278-0.52917 1.4817-0.56444 2.4342-1.5522 0.98778-0.98778 1.4464-2.3283 0.45861-1.3758 0.45861-2.9986t-0.45861-2.9633q-0.45861-1.3758-1.4464-2.3636-0.9525-0.98777-2.4342-1.5169-1.4817-0.56445-3.5278-0.56445h-3.1397v14.817zm15.205 5.2211m32.314-4.0922q-3.8806 4.6567-10.125 4.6567-2.8222 0-5.2564-1.0231-2.4342-1.023-4.2333-2.7869-1.7639-1.7992-2.7869-4.1981-1.0231-2.3989-1.0231-5.1858 0-2.7869 1.0231-5.1858 1.0231-2.3989 2.7869-4.1628 1.7992-1.7992 4.2333-2.8222 2.4342-1.0231 5.2564-1.0231 3.1044 0 5.3622 1.0583 2.2931 1.0583 4.1628 3.0692l-3.8453 3.7394q-0.98778-1.1289-2.3636-1.8697-1.3758-0.77611-3.2808-0.77611-1.6581 0-3.1044 0.56444-1.4111 0.56445-2.4694 1.6228-1.0583 1.0583-1.6581 2.54-0.59972 1.4464-0.59972 3.2456t0.59972 3.2808q0.59972 1.4464 1.6581 2.5047 1.0583 1.0583 2.4694 1.6228 1.4464 0.56445 3.1044 0.56445 2.0108 0 3.4925-0.81139 1.4817-0.81139 2.6811-2.3283zm16.051 4.6567q-2.8575 0-5.2917-1.0231-2.4342-1.023-4.2333-2.7869-1.7639-1.7992-2.7869-4.1981-0.98778-2.3989-0.98778-5.1858 0-2.7869 0.98778-5.1858 1.0231-2.3989 2.7869-4.1628 1.7992-1.7992 4.2333-2.8222 2.4342-1.0231 5.2917-1.0231t5.2917 1.0231 4.1981 2.8222q1.7992 1.7639 2.7869 4.1628 1.0231 2.3989 1.0231 5.1858 0 2.787-1.0231 5.1858-0.98778 2.3989-2.7869 4.1981-1.7639 1.7639-4.1981 2.7869-2.4342 1.0231-5.2917 1.0231zm0-5.2211q1.6228 0 3.0339-0.56445 1.4464-0.56444 2.5047-1.6228 1.0583-1.0583 1.6581-2.5047 0.59972-1.4817 0.59972-3.2808t-0.59972-3.2456q-0.59972-1.4817-1.6581-2.54-1.0583-1.0583-2.5047-1.6228-1.4111-0.56444-3.0339-0.56444-1.6581 0-3.0692 0.56444-1.4111 0.56445-2.4694 1.6228-1.0583 1.0583-1.6581 2.54-0.59972 1.4464-0.59972 3.2456t0.59972 3.2808q0.59972 1.4464 1.6581 2.5047 1.0583 1.0583 2.4694 1.6228 1.4111 0.56445 3.0692 0.56445zm17.674-20.602h5.4328l7.1967 12.347h0.35278l7.1967-12.347h5.4328v25.259h-5.4328v-11.183l0.35278-4.2333h-0.35278l-5.7503 10.054h-3.2456l-5.7503-10.054h-0.35278l0.35278 4.2333v11.183h-5.4328zm31.221 0h10.266q1.6933 0 3.1397 0.52917 1.4817 0.52916 2.54 1.4111 1.0583 0.88194 1.6581 2.0814 0.59972 1.1642 0.59972 2.4342 0 2.0814-1.0231 3.4572-0.98778 1.3758-2.3636 2.0461v0.35278q2.0108 0.74084 3.1397 2.2578 1.1642 1.517 1.1642 3.7394 0 1.6228-0.67028 2.9281-0.635 1.27-1.7992 2.1872-1.1289 0.88194-2.7164 1.3758-1.5522 0.45862-3.3867 0.45862h-10.548zm9.7367 10.019q1.4817 0 2.293-0.67027 0.81139-0.67028 0.81139-1.905 0-1.2347-0.81139-1.905-0.81139-0.67027-2.1519-0.67027h-4.3744v5.1506zm0.45861 10.301q3.422 0 3.422-2.8222 0-2.8222-3.5631-2.8222h-4.5508v5.6444zm25.188 5.5033q-2.8575 0-5.2917-1.0231-2.4342-1.023-4.2333-2.7869-1.7639-1.7992-2.7869-4.1981-0.98778-2.3989-0.98778-5.1858 0-2.7869 0.98778-5.1858 1.023-2.3989 2.7869-4.1628 1.7992-1.7992 4.2333-2.8222t5.2917-1.0231 5.2917 1.0231 4.1981 2.8222q1.7992 1.7639 2.787 4.1628 1.023 2.3989 1.023 5.1858 0 2.787-1.023 5.1858-0.98778 2.3989-2.787 4.1981-1.7639 1.7639-4.1981 2.7869-2.4342 1.0231-5.2917 1.0231zm0-5.2211q1.6228 0 3.0339-0.56445 1.4464-0.56444 2.5047-1.6228 1.0583-1.0583 1.658-2.5047 0.59973-1.4817 0.59973-3.2808t-0.59973-3.2456q-0.59972-1.4817-1.658-2.54-1.0583-1.0583-2.5047-1.6228-1.4111-0.56444-3.0339-0.56444-1.6581 0-3.0692 0.56444-1.4111 0.56445-2.4694 1.6228-1.0583 1.0583-1.6581 2.54-0.59972 1.4464-0.59972 3.2456t0.59972 3.2808q0.59972 1.4464 1.6581 2.5047 1.0583 1.0583 2.4694 1.6228 1.4111 0.56445 3.0692 0.56445z"/><path d="m5.3997 303.62q-3.5278 0-6.1031-1.8697-2.54-1.905-3.5983-5.4328l5.1858-2.0461q0.45861 1.7992 1.5169 2.9633 1.0583 1.1642 2.9986 1.1642 0.635 0 1.1994-0.14111 0.59972-0.14111 1.0231-0.42333 0.45861-0.3175 0.74083-0.77611t0.28222-1.0583q0-0.59972-0.24694-1.0936-0.21167-0.52917-0.74083-0.9525-0.52917-0.45861-1.4111-0.88194-0.88194-0.45862-2.2225-0.9525l-1.5522-0.56445q-0.98778-0.35278-2.0461-0.9525-1.0231-0.635-1.8697-1.517-0.84667-0.88194-1.3758-2.0108-0.52917-1.1642-0.52917-2.5753 0-1.517 0.59972-2.8575 0.59972-1.3406 1.6933-2.2931 1.0936-0.98778 2.6458-1.5522 1.5522-0.56445 3.4219-0.56445 1.9756 0 3.3867 0.52917 1.4111 0.49389 2.3989 1.3053 0.98778 0.77611 1.5522 1.7639 0.59972 0.98778 0.91722 1.905l-4.7625 2.0108q-0.38806-1.1289-1.2347-1.7992-0.84667-0.70556-2.1872-0.70556-1.4111 0-2.2578 0.59972-0.81139 0.56445-0.81139 1.4817 0 0.9525 0.84667 1.6933 0.84667 0.74083 2.9986 1.4817l1.5522 0.52917q3.2103 1.0936 4.9742 2.9281 1.7639 1.8344 1.7639 4.9389 0 1.9756-0.81139 3.422-0.77611 1.4464-2.0461 2.3989-1.2347 0.9525-2.8222 1.4111-1.5522 0.49389-3.0692 0.49389zm18.697-20.602v4.7978h10.019v5.2211h-10.019v4.7978h11.148v5.2211h-16.651v-25.259h16.651v5.2211zm16.051-5.2211h5.5033v20.038h10.583v5.2211h-16.087zm25.506 5.2211v4.7978h10.019v5.2211h-10.019v4.7978h11.148v5.2211h-16.651v-25.259h16.651v5.2211zm37.536 15.946q-3.8806 4.6567-10.125 4.6567-2.8222 0-5.2564-1.0231-2.4342-1.023-4.2333-2.7869-1.7639-1.7992-2.7869-4.1981-1.0231-2.3989-1.0231-5.1858t1.0231-5.1858q1.0231-2.3989 2.7869-4.1628 1.7992-1.7992 4.2333-2.8222 2.4342-1.0231 5.2564-1.0231 3.1044 0 5.3622 1.0583 2.2931 1.0583 4.1628 3.0692l-3.8453 3.7394q-0.98778-1.1289-2.3636-1.8697-1.3758-0.77611-3.2808-0.77611-1.6581 0-3.1044 0.56444-1.4111 0.56445-2.4694 1.6228-1.0583 1.0583-1.6581 2.54-0.59972 1.4464-0.59972 3.2456t0.59972 3.2808q0.59972 1.4464 1.6581 2.5047t2.4694 1.6228q1.4464 0.56444 3.1044 0.56444 2.0108 0 3.4925-0.81139 1.4817-0.81139 2.6811-2.3283zm9.7014 4.0922v-20.038h-7.0556v-5.2211h19.614v5.2211h-7.0556v20.038zm27.481 0.56445q-2.8575 0-5.2917-1.0231-2.4342-1.023-4.2333-2.7869-1.7639-1.7992-2.787-4.1981-0.98778-2.3989-0.98778-5.1858t0.98778-5.1858q1.0231-2.3989 2.787-4.1628 1.7992-1.7992 4.2333-2.8222 2.4342-1.0231 5.2917-1.0231 2.8575 0 5.2917 1.0231 2.4342 1.0231 4.1981 2.8222 1.7992 1.7639 2.787 4.1628 1.0231 2.3989 1.0231 5.1858t-1.0231 5.1858q-0.98778 2.3989-2.787 4.1981-1.7639 1.7639-4.1981 2.7869-2.4342 1.0231-5.2917 1.0231zm0-5.2211q1.6228 0 3.0339-0.56444 1.4464-0.56445 2.5047-1.6228t1.6581-2.5047q0.59972-1.4817 0.59972-3.2808t-0.59972-3.2456q-0.59973-1.4817-1.6581-2.54-1.0583-1.0583-2.5047-1.6228-1.4111-0.56444-3.0339-0.56444-1.658 0-3.0692 0.56444-1.4111 0.56445-2.4694 1.6228-1.0583 1.0583-1.6581 2.54-0.59972 1.4464-0.59972 3.2456t0.59972 3.2808q0.59973 1.4464 1.6581 2.5047t2.4694 1.6228q1.4111 0.56444 3.0692 0.56444zm17.674-20.602h9.525q2.0461 0 3.6689 0.635 1.6228 0.59972 2.7164 1.6933 1.1289 1.0936 1.6933 2.6106 0.59972 1.4817 0.59972 3.2456 0 1.2347-0.42333 2.293-0.38806 1.0583-1.0936 1.9756-0.67028 0.88195-1.5875 1.5875-0.91723 0.67028-1.9756 1.1289v0.3175l6.597 9.4192v0.35277h-6.2794l-6.3853-9.1017h-1.5522v9.1017h-5.5033zm9.525 11.077q1.4817 0 2.3283-0.84667 0.84667-0.88194 0.84667-2.152 0-1.27-0.81139-2.1167-0.77612-0.88195-2.3636-0.88195h-4.0217v5.9972z"/></g></g><g transform="matrix(1.6535 0 0 1.6535 -1925.4 -1519.6)"><path d="m1128.6 861.4c-1.2956 1.4074 19.63 49.223 21.217 48.707 1.3096-0.42634 2.9644-10.676 6.2198-17.171l23.875 22.496 6.2182-6.5992-23.757-22.386c6.4103-3.6639 16.18-6.333 16.464-7.5358 0.3568-1.5097-48.941-18.919-50.237-17.512z" fill="#3b4148" stroke="#f9f9f9" stroke-width="1.856"/></g><g stroke="#000"><path d="m-227.66-40.516-20.432 10.817c-4.0511 2.1447-4.0789-30.209-7.1188-28.393-3.04 1.8162 0.53852 31.302-5.83 35.433-6.3686 4.1305-16.319 10.6-22.344 13.622-5.2489 2.6328-5.9915-52.812-8.6821-52.88-2.6906-0.06872-2.7556 60.023-5.161 61.284-2.4056 1.2611-10.55 6.1641-10.55 6.1641-3.0508 1.7658-3.7161-21.283-6.4031-20.111-2.687 1.1719-1.5398 24.292-4.6978 26.205l-3.5273 2.7835" fill="#65708f" fill-opacity=".92157" opacity=".92176" stroke-width="1.4317"/><path d="m-166.75-6.1928-18.323 11.586c-5.8928 3.2129-5.8116-34.841-8.5346-34.053-2.723 0.7872 0.0787 39.199-4.2128 41.58-4.2915 2.3815-22.375 13.233-31.851 18.236-10.371 5.4747-9.435-58.933-12.034-54.153-2.5991 4.7796 1.5324 62.093-4.7206 65.567-1.3026 0.72382-1.1114 0.41381-5.6044 3.0519-4.493 2.6381-6.0298-28.18-7.3152-27.511-3.019 1.7526-1.38 32.251-9.7219 37.473l-12.995 8.6012" fill="#00749e" fill-opacity=".92157" opacity=".92176" stroke-width="1.3474"/><path d="m-104.56 28.801-19.448 10.587c-4.8804 2.8177-5.4671-26.777-8.2671-26.294-2.8 0.48311-2.0632 31.977-9.4179 36.505-1.2544 0.77224-6.185 4.0543-14.726 8.9853-8.5408 4.931-9.5337-59.712-12.186-59.201-2.6527 0.51052-0.53932 64.183-5.6996 67.879-3.8021 2.7229-13.721 9.5292-17.781 11.741-4.0594 2.212-8.2647-20.828-10.917-20.318-2.6528 0.51052-2.3515 27.272-6.0636 29.39" fill="#c3d7ff" opacity=".92176" stroke-width="1.1955"/><path d="m-201.15-118.58-13.104-7.171c-3.4914-2.1156-3.5352-13.327-5.465-14.048-1.9298-0.72093-2.3494 9.2622-5.7224 7.31 0 0-4.3188-3.0955-6.9785-4.4897-2.6592-1.3942-2.9984-29.379-4.8849-29.895-2.7786-0.76108-2.4364 25.507-8.2395 22.597-6.661-3.3408-22.192-11.186-29.233-15.752-7.0409-4.5666-4.4211-42.906-7.4432-44.914-3.0221-2.0079-2.8101 38.965-7.2116 36.453l-5.1269-2.7858" fill="#adb7d4" opacity=".92176" stroke-width="1.5828"/><path d="m-102.55-173.26-12.42-6.6837c-3.7144-2.2508-1.7259-55.355-4.4517-56.928-2.7258-1.5737-3.7942 51.204-7.9243 50.103-4.1301-1.1017-11.691-6.8891-14.52-8.3723-2.8291-1.4832-3.6714-43.784-7.0312-44.397-3.3598-0.61239-4.9157 36.962-11.089 33.865-7.0864-3.5542-18.62-9.7593-26.11-14.618-7.4906-4.8583-4.7035-21.152-7.9186-23.288-3.2151-2.1361-2.9896 16.958-7.6722 14.286l-4.5902-2.068" fill="#7184ba" fill-opacity=".92157" opacity=".92176" stroke-width="1.6839"/><path d="m-153.87-145.54-8.6571-6.1089c-3.4375-2.083-2.1887-33.661-5.1135-34.937-2.9248-1.2756-3.649 30.225-6.9698 28.303 0 0-23.952-14.589-26.571-15.962-2.6182-1.3726-0.61134-61.608-2.4688-62.116-2.7357-0.74934-4.7395 57.796-10.453 54.93-6.5582-3.2892-10.321-4.7095-17.254-9.2056-6.9322-4.4961-3.1699-35.591-6.1453-37.567-2.9754-1.9769-3.4154 32.378-7.7489 29.905l-5.2083-2.9203" fill="#00b193" fill-opacity=".92157" opacity=".92176" stroke-width="1.5584"/></g><g fill="#353d64" fill-opacity=".92157" stroke="#354164" stroke-width=".26458"><path d="m-227.23-195.19"/><path d="m-227.23-195.19"/><path d="m-223.06-210.25"/></g></g><text x="-99.54248" y="126.77619" fill="#000000" font-family="Sans" font-size="22.578px" letter-spacing=".52917px" stroke="#000000" stroke-width="1.0319" text-align="center" text-anchor="middle" style="line-height:4.13411px" xml:space="preserve"><tspan x="-99.542473" y="126.77619" style="font-variant-caps:normal;font-variant-east-asian:normal;font-variant-ligatures:normal;font-variant-numeric:normal">Welcome to 2DComboSelector</tspan><tspan x="-99.54248" y="130.91031" style="font-variant-caps:normal;font-variant-east-asian:normal;font-variant-ligatures:normal;font-variant-numeric:normal"/></text><text x="-276.50244" y="154.54092" fill="#000000" font-family="Sans" font-size="12.7px" letter-spacing="0px" stroke="#000000" stroke-width=".3175" text-align="center" word-spacing=".1905px" style="font-variant-caps:normal;font-variant-east-asian:normal;font-variant-ligatures:normal;font-variant-numeric:normal;line-height:15.58px" xml:space="preserve"><tspan x="-276.50244" y="154.54092" text-align="start" style="font-variant-caps:normal;font-variant-east-asian:normal;font-variant-ligatures:normal;font-variant-numeric:normal;line-height:15.58px">A tool designed to assist in the selection of suitable pairs of chromatographic modes, </tspan><tspan x="-276.50244" y="172.95912" text-align="start" style="font-variant-caps:normal;font-variant-east-asian:normal;font-variant-ligatures:normal;font-variant-numeric:normal;line-height:15.58px">stationary and mobile phase conditions for 2D separations.</tspan></text></g></g></svg>
