<?xml version="1.0" encoding="UTF-8" standalone="no"?>
<svg
   class="svg-icon"
   style="overflow:hidden;fill:currentColor"
   viewBox="0 0 82.652954 96.757294"
   version="1.1"
   id="svg1"
   sodipodi:docname="light_bulb.svg"
   width="82.652954"
   height="96.757294"
   inkscape:version="1.4.2 (f4327f4, 2025-05-13)"
   xmlns:inkscape="http://www.inkscape.org/namespaces/inkscape"
   xmlns:sodipodi="http://sodipodi.sourceforge.net/DTD/sodipodi-0.dtd"
   xmlns="http://www.w3.org/2000/svg"
   xmlns:svg="http://www.w3.org/2000/svg">
  <defs
     id="defs1" />
  <sodipodi:namedview
     id="namedview1"
     pagecolor="#ffffff"
     bordercolor="#000000"
     borderopacity="0.25"
     inkscape:showpageshadow="2"
     inkscape:pageopacity="0.0"
     inkscape:pagecheckerboard="0"
     inkscape:deskcolor="#d1d1d1"
     inkscape:zoom="1.1"
     inkscape:cx="261.81818"
     inkscape:cy="215.90909"
     inkscape:window-width="1920"
     inkscape:window-height="1111"
     inkscape:window-x="-9"
     inkscape:window-y="-9"
     inkscape:window-maximized="1"
     inkscape:current-layer="svg1" />
  <path
     d="m 19.082725,22.975603 c 1.145553,-1.4462 2.408308,-2.79026 3.788563,-3.99273 l -6.839601,-6.843071 c -1.073665,-1.077531 -2.816435,-1.077531 -3.894363,0 -1.073962,1.073961 -1.073962,2.816431 0,3.890401 l 6.945501,6.9452 z m 22.24462,-11.001887 c 0.0266,0 0.049,0 0.0795,0 0.90322,0 1.79563,0.05662 2.67276,0.147445 V 2.8018591 c 0,-1.519769 -1.23271,-2.752281 -2.75257,-2.752281 -1.51987,0 -2.74872,1.232413 -2.74872,2.752281 v 9.3175169 c 0.87714,-0.08874 1.76915,-0.14566 2.67286,-0.14566 0.0268,0 0.0529,0 0.0756,0 z m 22.25077,10.998317 6.93806,-6.94164 c 1.07744,-1.07396 1.07744,-2.81643 0,-3.890392 -1.07029,-1.077532 -2.81653,-1.077532 -3.89456,0 l -6.84356,6.843072 c 1.38402,1.20207 2.64697,2.54475 3.80006,3.98876 z M 12.32225,42.489653 c 0,-1.32899 0.106097,-2.62952 0.261079,-3.91498 H 2.7983881 c -1.516,0 -2.74881,1.23271 -2.74881,2.75228 0,1.51986 1.232909,2.75228 2.74881,2.75228 H 12.35636 c -0.02271,-0.52355 -0.03421,-1.04917 -0.03421,-1.58978 z m 67.532265,-3.91468 h -9.78107 c 0.15865,1.28546 0.26108,2.58619 0.26108,3.91498 0,0.5404 -0.0114,1.06623 -0.0302,1.58977 h 9.55023 c 1.52027,0 2.74882,-1.23241 2.74882,-2.75228 0,-1.51986 -1.22855,-2.75228 -2.74882,-2.75228 z m -14.82842,22.55973 c -1.11908,1.64074 -2.30221,3.05828 -3.44023,4.34007 l 5.03585,5.04002 c 1.07763,1.07396 2.82427,1.07396 3.89456,0 1.07744,-1.07753 1.07744,-2.81644 0,-3.89437 l -5.49028,-5.48572 z m -52.88897,5.48562 c -1.073961,1.07754 -1.073961,2.81644 0,3.89437 1.077631,1.07396 2.820798,1.07396 3.894363,0 l 5.040114,-5.04339 c -1.137818,-1.27802 -2.321447,-2.69923 -3.440624,-4.3362 l -5.493555,5.48572 z m 54.3785,-24.13067 c 0.004,-5.70704 -1.89766,-10.98503 -5.1004,-15.21196 -2.8091,-3.71261 -6.62424,-6.62384 -11.04393,-8.3327 l 0.0227,-0.12116 -1.88655,-0.55389 c -1.46732,-0.42538 -2.97975,-0.72037 -4.52203,-0.87922 l -0.21923,-0.0244 h -0.007 l -0.008,-0.002 c -0.75587,-0.0718 -1.54257,-0.12682 -2.3629,-0.12682 h -0.12077 c -0.82062,0 -1.60703,0.0552 -2.36319,0.12682 l -0.0114,0.002 -0.22668,0.0244 c -1.54039,0.15865 -3.05312,0.45364 -4.51646,0.87922 l -1.82607,0.53286 0.0188,0.12117 c -4.44236,1.70688 -8.28001,4.62574 -11.104477,8.35332 -3.198584,4.22684 -5.100401,9.50453 -5.100401,15.21197 0,4.09257 0.707183,7.45724 1.807322,10.24185 1.652042,4.17587 4.173884,6.99637 6.20054,9.13606 1.013377,1.06633 1.905786,1.97728 2.510336,2.75605 0.62013,0.78254 0.91869,1.38769 1.00555,1.86781 0.44213,2.33661 0.48755,5.28562 0.48755,6.03405 v 0.21557 c 0,3.37974 2.7376,6.10971 6.11388,6.11348 h 14.13076 c 3.38043,-0.004 6.11388,-2.73761 6.11388,-6.11348 v -0.20793 c -0.004,-0.7411 0.0454,-3.69764 0.48774,-6.03792 0.0603,-0.32504 0.20407,-0.69579 0.48756,-1.14933 0.48388,-0.79027 1.39909,-1.77321 2.53324,-2.95674 1.69389,-1.78074 3.84875,-4.02614 5.56178,-7.21907 1.71659,-3.18897 2.94524,-7.30841 2.9376,-12.68031 z m -5.77348,8.67132 c -1.34991,3.40463 -3.37657,5.70892 -5.33094,7.77296 -0.9758,1.03231 -1.93226,1.99254 -2.76755,3.0552 -0.82408,1.04729 -1.56122,2.24589 -1.8449,3.71648 -0.53317,2.86958 -0.55597,5.94719 -0.55904,6.8281 0,0.1171 0,0.18126 0,0.20783 -0.004,1.02081 -0.82439,1.8449 -1.84511,1.8449 h -14.13076 c -0.51789,0 -0.96786,-0.20416 -1.30826,-0.5404 -0.33624,-0.3405 -0.53664,-0.78671 -0.53664,-1.3043 0,-0.0266 0,-0.0945 0,-0.21537 -0.004,-0.88814 -0.0303,-3.95842 -0.5634,-6.82027 -0.18126,-0.97143 -0.57848,-1.84143 -1.0584,-2.61256 -0.85066,-1.34972 -1.9394,-2.46097 -3.06284,-3.65213 -1.69715,-1.76914 -3.49347,-3.68058 -4.892466,-6.2875 -1.395129,-2.6087 -2.431014,-5.92409 -2.434981,-10.66326 0.0037,-4.75425 1.572817,-9.11743 4.234568,-12.63519 2.661849,-3.5143 6.404999,-6.16842 10.726229,-7.46112 l 0.53316,-0.16241 c 1.04353,-0.26852 2.11352,-0.482 3.21554,-0.59752 h 0.007 l 0.20426,-0.0227 c 0.6464,-0.0622 1.27386,-0.10213 1.89418,-0.1057 l 0.10957,0.0114 0.10967,-0.008 c 0.61596,0 1.24728,0.0416 1.89021,0.10213 h -0.008 l 0.2119,0.0227 h 0.004 c 1.09994,0.11532 2.17024,0.32493 3.20989,0.59751 l 0.5405,0.16242 c 4.32143,1.2927 8.06428,3.94711 10.72623,7.46111 2.65749,3.51787 4.2306,7.88114 4.2306,12.63519 3e-4,3.61018 -0.60426,6.39667 -1.5041,8.67082 z m -16.76048,-33.76956 h 0.008 z m -5.31597,0 v 0 c 0,0 0.004,0 0.007,0 z m 9.67131,63.13459 h -14.01763 c -1.44808,0 -2.62754,1.17223 -2.62754,2.63151 0,1.44411 1.17986,2.62417 2.62754,2.62417 h 14.01763 c 1.44808,0 2.62754,-1.17986 2.62754,-2.62417 0,-1.45968 -1.17986,-2.63151 -2.62754,-2.63151 z m 0,6.63148 h -14.01763 c -1.44808,0 -2.62754,1.17569 -2.62754,2.62407 0,1.45542 1.17986,2.63151 2.62754,2.63151 h 14.01763 c 1.44808,0 2.62754,-1.1757 2.62754,-2.63151 0,-1.44818 -1.17986,-2.62407 -2.62754,-2.62407 z m -5.78081,6.68432 h -7.21908 c 0,0.0794 -0.0153,0.15478 -0.0153,0.23837 0,1.45195 2.23082,2.62754 4.29317,2.62754 h 3.42546 c 2.06423,0 4.29118,-1.17569 4.29118,-2.62754 0,-0.083 -0.0114,-0.15865 -0.0114,-0.23837 h -4.76387 z"
     id="path1"
     style="fill:#1a1a1a;stroke:#666666;stroke-width:0.0991562"
     inkscape:export-filename="light_bulb.png"
     inkscape:export-xdpi="96"
     inkscape:export-ydpi="96" />
</svg>
