<?xml version="1.0" encoding="UTF-8" standalone="no"?>
<!-- Created with Inkscape (http://www.inkscape.org/) -->

<svg
   width="14.635284mm"
   height="12.71522mm"
   viewBox="0 0 14.635284 12.71522"
   version="1.1"
   id="svg1"
   inkscape:version="1.4.2 (f4327f4, 2025-05-13)"
   sodipodi:docname="norm_icon.svg"
   xmlns:inkscape="http://www.inkscape.org/namespaces/inkscape"
   xmlns:sodipodi="http://sodipodi.sourceforge.net/DTD/sodipodi-0.dtd"
   xmlns="http://www.w3.org/2000/svg"
   xmlns:svg="http://www.w3.org/2000/svg">
  <sodipodi:namedview
     id="namedview1"
     pagecolor="#ffffff"
     bordercolor="#000000"
     borderopacity="0.25"
     inkscape:showpageshadow="2"
     inkscape:pageopacity="0.0"
     inkscape:pagecheckerboard="0"
     inkscape:deskcolor="#d1d1d1"
     inkscape:document-units="mm"
     showgrid="true"
     inkscape:zoom="8.8"
     inkscape:cx="202.72727"
     inkscape:cy="336.53409"
     inkscape:window-width="1920"
     inkscape:window-height="1111"
     inkscape:window-x="-9"
     inkscape:window-y="-9"
     inkscape:window-maximized="1"
     inkscape:current-layer="layer1">
    <inkscape:grid
       id="grid1"
       units="mm"
       originx="-45.253961"
       originy="-63.446003"
       spacingx="0.99999998"
       spacingy="1"
       empcolor="#0099e5"
       empopacity="0.30196078"
       color="#0099e5"
       opacity="0.14901961"
       empspacing="5"
       enabled="true"
       visible="true" />
  </sodipodi:namedview>
  <defs
     id="defs1">
    <rect
       x="207.87402"
       y="758.0506"
       width="11.338588"
       height="5.41396"
       id="rect7" />
    <inkscape:path-effect
       effect="construct_grid"
       id="path-effect5"
       is_visible="true"
       lpeversion="1"
       nr_x="5"
       nr_y="6" />
    <marker
       markerWidth="2"
       markerHeight="2"
       refX="2.6947134"
       refY="2.6947134"
       orient="auto"
       id="marker3"
       viewBox="0 0 5.3894253 5.3894253"
       preserveAspectRatio="xMidYMid">
      <circle
         style="fill:#ffffff;stroke:#ffffff;stroke-width:2;stroke-dasharray:none"
         id="path3"
         cx="2.6947134"
         cy="2.6947134"
         r="1.6947126" />
    </marker>
    <marker
       markerWidth="2"
       markerHeight="2"
       refX="2.6947134"
       refY="2.6947134"
       orient="auto"
       id="marker3-5"
       viewBox="0 0 5.3894253 5.3894253"
       preserveAspectRatio="xMidYMid">
      <circle
         style="fill:#ffffff;stroke:#ffffff;stroke-width:2;stroke-dasharray:none"
         id="path3-2"
         cx="2.6947134"
         cy="2.6947134"
         r="1.6947126" />
    </marker>
    <marker
       markerWidth="2"
       markerHeight="2"
       refX="2.6947134"
       refY="2.6947134"
       orient="auto"
       id="marker1"
       viewBox="0 0 5.3894253 5.3894253"
       preserveAspectRatio="xMidYMid">
      <circle
         style="fill:#ffffff;stroke:#ffffff;stroke-width:2;stroke-dasharray:none"
         id="circle1"
         cx="2.6947134"
         cy="2.6947134"
         r="1.6947126" />
    </marker>
    <marker
       markerWidth="2"
       markerHeight="2"
       refX="2.6947134"
       refY="2.6947134"
       orient="auto"
       id="marker2"
       viewBox="0 0 5.3894253 5.3894253"
       preserveAspectRatio="xMidYMid">
      <circle
         style="fill:#ffffff;stroke:#ffffff;stroke-width:2;stroke-dasharray:none"
         id="circle2"
         cx="2.6947134"
         cy="2.6947134"
         r="1.6947126" />
    </marker>
    <inkscape:path-effect
       effect="construct_grid"
       id="path-effect5-1"
       is_visible="true"
       lpeversion="1"
       nr_x="4"
       nr_y="4" />
    <inkscape:path-effect
       effect="construct_grid"
       id="path-effect5-7"
       is_visible="true"
       lpeversion="1"
       nr_x="5"
       nr_y="6" />
    <inkscape:path-effect
       effect="construct_grid"
       id="path-effect5-9"
       is_visible="true"
       lpeversion="1"
       nr_x="5"
       nr_y="6" />
  </defs>
  <g
     inkscape:label="Layer 1"
     inkscape:groupmode="layer"
     id="layer1"
     transform="translate(-45.253962,-63.446005)">
    <path
       id="rect24"
       style="fill:#232b43;stroke:#232b43;stroke-width:0.0264583"
       d="m 45.000004,61.999992 h 15 v 15 h -15 z" />
    <rect
       style="fill:#232b43;stroke:#232b43;stroke-width:0.0264583"
       id="rect1-1"
       width="15"
       height="15"
       x="44.857147"
       y="100.01635" />
    <path
       style="fill:none;stroke:#ffffff;stroke-width:1.05833;stroke-dasharray:none"
       d="m 47.857143,103.01635 c 0,0 -0.07064,8.88684 0,9.00001 0.07064,0.11316 10,0 10,0"
       id="path1-4"
       sodipodi:nodetypes="czc"
       inkscape:export-filename="pairwise_icon.svg"
       inkscape:export-xdpi="347.10629"
       inkscape:export-ydpi="347.10629" />
    <circle
       style="fill:#ffffff;stroke:#ffffff;stroke-width:0.433771;stroke-dasharray:none;stroke-dashoffset:0"
       id="path4"
       cx="53.6283"
       cy="109.60442"
       r="0.28333539" />
    <circle
       style="fill:#ffffff;stroke:#ffffff;stroke-width:0.433771;stroke-dasharray:none;stroke-dashoffset:0"
       id="path4-5"
       cx="56"
       cy="110.71666"
       r="0.28333539" />
    <circle
       style="fill:#ffffff;stroke:#ffffff;stroke-width:0.433771;stroke-dasharray:none;stroke-dashoffset:0"
       id="path4-38"
       cx="52"
       cy="107.71666"
       r="0.28333539" />
    <circle
       style="fill:#ffffff;stroke:#ffffff;stroke-width:0.433771;stroke-dasharray:none;stroke-dashoffset:0"
       id="path4-7"
       cx="55.716667"
       cy="108"
       r="0.28333539" />
    <circle
       style="fill:#ffffff;stroke:#ffffff;stroke-width:0.433771;stroke-dasharray:none;stroke-dashoffset:0"
       id="path4-86"
       cx="55.716667"
       cy="105"
       r="0.28333539" />
    <circle
       style="fill:#ffffff;stroke:#ffffff;stroke-width:0.433771;stroke-dasharray:none;stroke-dashoffset:0"
       id="path4-86-6"
       cx="53.499779"
       cy="105.50022"
       r="0.28333539" />
    <circle
       style="fill:#ffffff;stroke:#ffffff;stroke-width:0.433771;stroke-dasharray:none;stroke-dashoffset:0"
       id="path4-6"
       cx="50.500221"
       cy="104.50022"
       r="0.28333539" />
    <circle
       style="fill:#ffffff;stroke:#ffffff;stroke-width:0.433771;stroke-dasharray:none;stroke-dashoffset:0"
       id="path4-3"
       cx="49.716667"
       cy="110"
       r="0.28333539" />
    <circle
       style="fill:#ffffff;stroke:#ffffff;stroke-width:0.433771;stroke-dasharray:none;stroke-dashoffset:0"
       id="path4-8"
       cx="49.499779"
       cy="106.49978"
       r="0.28333539" />
    <rect
       style="fill:#232b43;stroke:#232b43;stroke-width:0.0264583"
       id="rect1-1-0"
       width="15"
       height="15"
       x="43.857147"
       y="124.01634" />
    <path
       style="fill:none;stroke:#ffffff;stroke-width:1.05833;stroke-dasharray:none"
       d="m 46.857142,127.01635 c 0,0 -0.07064,8.88684 0,9.00001 0.07064,0.11316 10,0 10,0"
       id="path1-4-6"
       sodipodi:nodetypes="czc"
       inkscape:export-filename="om_icon.svg"
       inkscape:export-xdpi="347.10629"
       inkscape:export-ydpi="347.10629" />
    <circle
       style="fill:#ffffff;stroke:#ffffff;stroke-width:0.433771;stroke-dasharray:none;stroke-dashoffset:0"
       id="path4-1"
       cx="52.816216"
       cy="133.11584"
       r="0.28333539" />
    <circle
       style="fill:#ffffff;stroke:#ffffff;stroke-width:0.433771;stroke-dasharray:none;stroke-dashoffset:0"
       id="path4-5-3"
       cx="56"
       cy="134.50021"
       r="0.28333539" />
    <circle
       style="fill:#ffffff;stroke:#ffffff;stroke-width:0.433771;stroke-dasharray:none;stroke-dashoffset:0"
       id="path4-38-8"
       cx="51"
       cy="131.47385"
       r="0.28333539" />
    <circle
       style="fill:#ffffff;stroke:#ffffff;stroke-width:0.433771;stroke-dasharray:none;stroke-dashoffset:0"
       id="path4-7-9"
       cx="53.045322"
       cy="131.52112"
       r="0.28333539" />
    <circle
       style="fill:#ffffff;stroke:#ffffff;stroke-width:0.433771;stroke-dasharray:none;stroke-dashoffset:0"
       id="path4-86-3"
       cx="55.995548"
       cy="129.33031"
       r="0.28333539" />
    <circle
       style="fill:#ffffff;stroke:#ffffff;stroke-width:0.433771;stroke-dasharray:none;stroke-dashoffset:0"
       id="path4-86-6-4"
       cx="52.712822"
       cy="129.45648"
       r="0.28333539" />
    <circle
       style="fill:#ffffff;stroke:#ffffff;stroke-width:0.433771;stroke-dasharray:none;stroke-dashoffset:0"
       id="path4-6-4"
       cx="49.716667"
       cy="128"
       r="0.28333539" />
    <circle
       style="fill:#ffffff;stroke:#ffffff;stroke-width:0.433771;stroke-dasharray:none;stroke-dashoffset:0"
       id="path4-3-6"
       cx="48"
       cy="134.39838"
       r="0.28333539" />
    <circle
       style="fill:#ffffff;stroke:#ffffff;stroke-width:0.433771;stroke-dasharray:none;stroke-dashoffset:0"
       id="path4-8-0"
       cx="49.690342"
       cy="131.24388"
       r="0.28333539" />
    <path
       style="fill:none;stroke:#ffffff;stroke-width:0.161785;stroke-dasharray:none;stroke-dashoffset:0"
       d="M 50,132.99999 H 38.000006 M 50,135 H 38.000006 M 50,137.00001 H 38.000006 M 50,139.00002 H 38.000006 M 50,141.00003 H 38.000006 M 50,143.00004 H 38.000006 M 50,132.99999 v 10.00005 m -1.999999,-10.00005 v 10.00005 m -1.999999,-10.00005 v 10.00005 m -1.999999,-10.00005 v 10.00005 m -1.999999,-10.00005 v 10.00005 m -1.999999,-10.00005 v 10.00005 m -1.999999,-10.00005 v 10.00005"
       id="path5"
       inkscape:path-effect="#path-effect5"
       inkscape:original-d="M 48.000001,132.99999 H 50 V 135 h -1.999999 z"
       transform="matrix(0.79213527,0,0,0.8440921,17.214714,14.775819)" />
    <path
       style="fill:#ffffff;stroke:#ffffff;stroke-width:0.264583;stroke-dasharray:none;stroke-dashoffset:0"
       d="m 47.315858,135.48102 8.931134,-7.52199"
       id="path6" />
    <rect
       style="fill:#232b43;stroke:#232b43;stroke-width:0.0264583"
       id="rect1-1-0-2"
       width="15"
       height="15"
       x="43.958252"
       y="144.99791" />
    <path
       style="fill:none;stroke:#ffffff;stroke-width:0.282084;stroke-dasharray:none;stroke-dashoffset:0"
       d="m 41.990454,133.01149 c 0.0297,-0.0184 7.975335,-0.02 8.044868,0.029 0.06953,0.049 -0.0037,7.84478 -0.02504,7.90222 -0.02132,0.0574 -7.92867,0.0511 -7.963579,0.0511 -0.03491,0 -0.09655,-7.96197 -0.05625,-7.98232 z M 50,135 H 42.000004 M 50,137.00001 H 42.000004 M 50,139.00002 h -7.999996 m 5.999997,-6.00003 v 8.00004 m -1.999999,-8.00004 v 8.00004 m -1.999999,-8.00004 v 8.00004"
       id="path5-9"
       sodipodi:nodetypes="czzsccccccccccccc"
       inkscape:export-filename="redund_icon.svg"
       inkscape:export-xdpi="347.10629"
       inkscape:export-ydpi="347.10629"
       transform="matrix(1.4069379,0,0,1.4069379,-13.504991,-40.155211)" />
    <path
       style="fill:#f9f9f9;stroke:none;stroke-width:0.0529167;stroke-dasharray:none;stroke-opacity:0.921569"
       d="m 45.698534,147.11441 -0.01064,2.52463 2.577785,0.005 0.0053,-2.54589 z"
       id="path7" />
    <path
       style="fill:#737373;fill-opacity:1;stroke:none;stroke-width:0.0529167;stroke-dasharray:none;stroke-opacity:0.921569"
       d="m 54.163888,149.89607 2.636649,0.0199 -0.0064,2.55361 -2.628353,-0.003 z"
       id="path8"
       sodipodi:nodetypes="ccccc" />
    <path
       style="fill:#f2f2f2;stroke:none;stroke-width:0.0529167;stroke-dasharray:none;stroke-opacity:0.921569"
       d="m 51.322039,149.90349 2.578184,-0.004 -0.0037,2.5669 -2.572545,0.008 z"
       id="path8-2"
       sodipodi:nodetypes="ccccc" />
    <path
       style="fill:#666666;stroke:none;stroke-width:0.0529167;stroke-dasharray:none;stroke-opacity:0.921569"
       d="m 45.7259,155.45213 2.540601,-0.004 0.01883,2.64206 -2.5406,-0.008 z"
       id="path8-1"
       sodipodi:nodetypes="ccccc" />
    <path
       style="fill:#979797;fill-opacity:1;stroke:none;stroke-width:0.0529167;stroke-dasharray:none;stroke-opacity:0.921569"
       d="m 51.34757,152.72378 2.548117,-0.008 3.9e-5,2.61199 -2.555633,-0.008 z"
       id="path8-1-5"
       sodipodi:nodetypes="ccccc" />
    <path
       style="fill:#898989;fill-opacity:1;stroke:none;stroke-width:0.0529167;stroke-dasharray:none;stroke-opacity:0.921569"
       d="m 54.116762,155.53481 2.645833,0.003 -0.01873,2.53683 -2.645832,0.022 z"
       id="path8-1-6"
       sodipodi:nodetypes="ccccc" />
    <path
       style="fill:#4d4d4d;stroke:none;stroke-width:0.0529167;stroke-dasharray:none;stroke-opacity:0.921569"
       d="m 48.537044,149.94717 2.540601,-0.004 0.0038,2.55187 h -2.5406 z"
       id="path8-4" />
    <path
       style="fill:#e6e6e6;stroke:none;stroke-width:0.0529167;stroke-dasharray:none;stroke-opacity:0.921569"
       d="m 48.531438,152.72707 2.551209,-0.016 0.0026,2.58044 -2.559183,-0.002 z"
       id="path9"
       sodipodi:nodetypes="ccccc" />
    <path
       style="fill:#b3b3b3;stroke:none;stroke-width:0.0529167;stroke-dasharray:none;stroke-opacity:0.921569"
       d="m 54.149413,147.11441 2.641565,0.0106 0.01064,2.53526 -2.652193,0.005 z"
       id="path10" />
    <path
       style="fill:#9f9f9f;fill-opacity:1;stroke:none;stroke-width:0.0529167;stroke-dasharray:none;stroke-opacity:0.921569"
       d="m 45.693665,152.7241 2.588414,0.005 -0.01335,2.55386 -2.548553,0.003 z"
       id="path11"
       sodipodi:nodetypes="ccccc" />
    <path
       style="fill:#7b7b7b;fill-opacity:1;stroke:none;stroke-width:0.0529167;stroke-dasharray:none;stroke-opacity:0.921569"
       d="m 51.311409,147.09716 2.578184,-0.004 -0.0037,2.5669 -2.572545,0.008 z"
       id="path12"
       sodipodi:nodetypes="ccccc" />
    <path
       style="fill:#f9f9f9;fill-opacity:1;stroke:none;stroke-width:0.0529167;stroke-dasharray:none;stroke-opacity:0.921569"
       d="m 51.334424,155.5394 2.578184,-0.004 -0.0037,2.5669 -2.572545,0.008 z"
       id="path13"
       sodipodi:nodetypes="ccccc" />
    <path
       style="fill:#b4b4b4;fill-opacity:1;stroke:none;stroke-width:0.0529167;stroke-dasharray:none;stroke-opacity:0.921569"
       d="m 48.531438,155.5334 2.551209,-0.016 0.0026,2.58044 -2.559183,-0.002 z"
       id="path14"
       sodipodi:nodetypes="ccccc" />
    <path
       style="fill:#7c7c7c;fill-opacity:1;stroke:none;stroke-width:0.0529167;stroke-dasharray:none;stroke-opacity:0.921569"
       d="m 45.730714,149.94717 2.540601,-0.004 0.0038,2.55187 h -2.5406 z"
       id="path15" />
    <path
       style="fill:#f2f2f2;stroke:none;stroke-width:0.0529167;stroke-dasharray:none;stroke-opacity:0.921569"
       d="m 51.322039,149.90349 2.578184,-0.004 -0.0037,2.5669 -2.572545,0.008 z"
       id="path16"
       sodipodi:nodetypes="ccccc" />
    <path
       style="fill:#e6e6e6;stroke:none;stroke-width:0.0529167;stroke-dasharray:none;stroke-opacity:0.921569"
       d="m 54.163014,152.73361 2.626375,-0.016 -0.01995,2.60299 -2.626832,-0.002 z"
       id="path9-9"
       sodipodi:nodetypes="ccccc" />
    <path
       style="fill:#adadad;fill-opacity:1;stroke:none;stroke-width:0.0529167;stroke-dasharray:none;stroke-opacity:0.921569"
       d="m 48.515784,147.13021 2.540601,-0.004 0.0038,2.55187 h -2.5406 z"
       id="path17" />
    <rect
       style="fill:#232b43;stroke:#232b43;stroke-width:0.0264583"
       id="rect17"
       width="15"
       height="15"
       x="43.677086"
       y="165.98958" />
    <text
       xml:space="preserve"
       style="font-style:normal;font-variant:normal;font-weight:normal;font-stretch:normal;font-size:2.11667px;font-family:Sans;-inkscape-font-specification:'Sans, Normal';font-variant-ligatures:normal;font-variant-caps:normal;font-variant-numeric:normal;font-variant-east-asian:normal;text-align:center;letter-spacing:0.529167px;writing-mode:lr-tb;direction:ltr;text-anchor:middle;fill:#ffffff;stroke:#ffffff;stroke-width:0.264583;stroke-dasharray:none"
       x="61.420193"
       y="177.86771"
       id="text19"><tspan
         sodipodi:role="line"
         id="tspan19"
         style="font-style:normal;font-variant:normal;font-weight:normal;font-stretch:normal;font-size:2.11667px;font-family:Sans;-inkscape-font-specification:'Sans, Normal';font-variant-ligatures:normal;font-variant-caps:normal;font-variant-numeric:normal;font-variant-east-asian:normal;stroke-width:0.264583"
         x="61.684776"
         y="177.86771">1</tspan></text>
    <rect
       style="fill:#a0a0a0;fill-opacity:1;stroke:none;stroke-width:0.396875;stroke-dasharray:none;stroke-opacity:0.921569"
       id="rect20"
       width="3.9999988"
       height="9.0000048"
       x="49"
       y="170"
       ry="0"
       inkscape:export-filename="rank_icon.svg"
       inkscape:export-xdpi="347.10629"
       inkscape:export-ydpi="347.10629" />
    <rect
       style="fill:#ffffff;fill-opacity:1;stroke:none;stroke-width:0.396875;stroke-dasharray:none;stroke-opacity:0.921569"
       id="rect21"
       width="4.0000029"
       height="3.75472"
       x="45"
       y="175.24529"
       ry="0" />
    <rect
       style="fill:#bfbfbf;fill-opacity:1;stroke:none;stroke-width:0.396875;stroke-dasharray:none;stroke-opacity:1"
       id="rect22"
       width="3.9999988"
       height="6.0000048"
       x="53"
       y="173"
       ry="0" />
    <text
       xml:space="preserve"
       style="font-style:normal;font-variant:normal;font-weight:normal;font-stretch:normal;font-size:2.11667px;font-family:Sans;-inkscape-font-specification:'Sans, Normal';font-variant-ligatures:normal;font-variant-caps:normal;font-variant-numeric:normal;font-variant-east-asian:normal;text-align:center;letter-spacing:0.529167px;writing-mode:lr-tb;direction:ltr;text-anchor:middle;fill:#ffffff;stroke:#ffffff;stroke-width:0.264583;stroke-dasharray:none"
       x="51.128048"
       y="172.25769"
       id="text2-1-1"><tspan
         sodipodi:role="line"
         id="tspan2-7-9"
         style="font-style:normal;font-variant:normal;font-weight:normal;font-stretch:normal;font-size:2.11667px;font-family:Sans;-inkscape-font-specification:'Sans, Normal';font-variant-ligatures:normal;font-variant-caps:normal;font-variant-numeric:normal;font-variant-east-asian:normal;stroke-width:0.264583"
         x="51.392632"
         y="172.25769">1</tspan></text>
    <text
       xml:space="preserve"
       style="font-style:normal;font-variant:normal;font-weight:normal;font-stretch:normal;font-size:2.11667px;font-family:'Product Sans Black';-inkscape-font-specification:'Product Sans Black, Normal';font-variant-ligatures:normal;font-variant-caps:normal;font-variant-numeric:normal;font-variant-east-asian:normal;text-align:center;letter-spacing:0.529167px;writing-mode:lr-tb;direction:ltr;text-anchor:middle;fill:#1a1a1a;fill-opacity:1;stroke:none;stroke-width:0.396875;stroke-dasharray:none;stroke-opacity:1"
       x="46.820301"
       y="177.189"
       id="text22"><tspan
         sodipodi:role="line"
         id="tspan22"
         style="font-style:normal;font-variant:normal;font-weight:normal;font-stretch:normal;font-size:2.11667px;font-family:'Product Sans Black';-inkscape-font-specification:'Product Sans Black, Normal';font-variant-ligatures:normal;font-variant-caps:normal;font-variant-numeric:normal;font-variant-east-asian:normal;fill:#1a1a1a;stroke-width:0.396875"
         x="47.084885"
         y="177.189">3</tspan></text>
    <text
       xml:space="preserve"
       style="font-style:normal;font-variant:normal;font-weight:normal;font-stretch:normal;font-size:2.11667px;font-family:'Product Sans Black';-inkscape-font-specification:'Product Sans Black, Normal';font-variant-ligatures:normal;font-variant-caps:normal;font-variant-numeric:normal;font-variant-east-asian:normal;text-align:center;letter-spacing:0.529167px;writing-mode:lr-tb;direction:ltr;text-anchor:middle;fill:#1a1a1a;fill-opacity:1;stroke:none;stroke-width:0.396875;stroke-dasharray:none;stroke-opacity:1"
       x="54.735416"
       y="175"
       id="text23"><tspan
         sodipodi:role="line"
         id="tspan23"
         style="font-style:normal;font-variant:normal;font-weight:normal;font-stretch:normal;font-size:2.11667px;font-family:'Product Sans Black';-inkscape-font-specification:'Product Sans Black, Normal';font-variant-ligatures:normal;font-variant-caps:normal;font-variant-numeric:normal;font-variant-east-asian:normal;fill:#1a1a1a;stroke-width:0.396875"
         x="55"
         y="175">2</tspan></text>
    <rect
       style="fill:#232b43;stroke:#232b43;stroke-width:0.0308553"
       id="rect23"
       width="17.49279"
       height="17.49279"
       x="43.679283"
       y="188.49178" />
    <g
       id="g25"
       inkscape:export-filename="export_icon.svg"
       inkscape:export-xdpi="96"
       inkscape:export-ydpi="96">
      <path
         id="rect28"
         style="fill:none;stroke:#ffffff;stroke-width:0.79375;stroke-dasharray:none"
         d="m 53.396877,192.39687 -1e-6,8.00002 c 0,0.55399 -0.445998,0.99999 -0.999995,0.99999 h -6.00001 c -0.553997,0 -0.999995,-0.446 -0.999995,-0.99999 v -9.00002 c 0,-0.55399 0.445998,-0.99999 0.999995,-0.99999 l 5.000006,-1e-5 z"
         sodipodi:nodetypes="cssssssc"
         inkscape:export-filename="export_icon.png"
         inkscape:export-xdpi="96"
         inkscape:export-ydpi="96" />
      <path
         style="fill:none;fill-opacity:1;stroke:#ffffff;stroke-width:0.529167;stroke-dasharray:none;stroke-opacity:1"
         d="m 51.396877,190.39687 10e-7,2 h 1.999998"
         id="path28"
         sodipodi:nodetypes="ccc" />
      <path
         style="fill:none;fill-opacity:1;stroke:#ffffff;stroke-width:0.79375;stroke-dasharray:none;stroke-opacity:1"
         d="m 46.926044,193.39687 h 5.000001"
         id="path29" />
      <path
         style="fill:none;fill-opacity:1;stroke:#ffffff;stroke-width:0.79375;stroke-dasharray:none;stroke-opacity:1"
         d="m 46.926044,195.39687 h 5.000001"
         id="path30" />
      <path
         style="fill:none;fill-opacity:1;stroke:#ffffff;stroke-width:0.79375;stroke-dasharray:none;stroke-opacity:1"
         d="m 46.926044,197.39687 h 5.000001"
         id="path31" />
      <path
         style="fill:none;fill-opacity:1;stroke:#ffffff;stroke-width:0.79375;stroke-dasharray:none;stroke-opacity:1"
         d="m 46.926044,199.39687 h 5.000001"
         id="path32" />
    </g>
    <rect
       style="fill:#232b43;stroke:#232b43;stroke-width:0.0264583"
       id="rect2"
       width="15"
       height="15"
       x="45.676994"
       y="214.68802"
       inkscape:export-filename="home_icon.png"
       inkscape:export-xdpi="96"
       inkscape:export-ydpi="96" />
    <path
       id="path23"
       style="opacity:1;fill:none;fill-opacity:0.871134;stroke:#ffffff;stroke-width:0.926042;stroke-dasharray:none"
       d="m 52.000213,215.99972 c 0,0 -5.000305,3.79989 -5.000212,4.00027 9.3e-5,0.20038 0,8.00003 0,8.00003 h 3.000334 v -2.99827 -0.002 -5.1e-4 c 6.6e-5,-1.10447 0.895403,-1.99981 1.999878,-1.99988 1.104475,7e-5 1.999812,0.89541 1.999878,1.99988 v 5.1e-4 2.99982 h 2.999817 c 0,0 -0.005,-7.81716 0,-8.00003 0.005,-0.18287 -4.999695,-3.99982 -4.999695,-3.99982 z"
       sodipodi:nodetypes="czccccscsccczc"
       inkscape:export-filename="export_icon.png"
       inkscape:export-xdpi="96"
       inkscape:export-ydpi="96" />
    <g
       id="text6"
       style="font-size:3.52778px;font-family:'Product Sans Black';-inkscape-font-specification:'Product Sans Black, Normal';letter-spacing:0px;fill:#ffffff;fill-opacity:0.871134;stroke-width:0"
       aria-label=".png&#10;.xlsx">
      <path
         style="font-size:3.52778px"
         d="m 54.508,202.02117 q -0.141111,0 -0.239889,-0.0988 -0.09878,-0.0988 -0.09878,-0.23989 0,-0.14111 0.09878,-0.23989 0.09878,-0.0988 0.239889,-0.0988 0.141111,0 0.239889,0.0988 0.09878,0.0988 0.09878,0.23989 0,0.14111 -0.09878,0.23989 -0.09878,0.0988 -0.239889,0.0988 z m 1.185334,-1.55928 h 0.03528 q 0.05997,-0.10231 0.183445,-0.17286 0.127,-0.0741 0.3175,-0.0741 0.165805,0 0.3175,0.067 0.151694,0.067 0.264583,0.1905 0.116417,0.11995 0.183445,0.28928 0.06703,0.16933 0.06703,0.37394 0,0.20462 -0.06703,0.37395 -0.06703,0.16933 -0.183445,0.2928 -0.112889,0.11995 -0.264583,0.18698 -0.151695,0.067 -0.3175,0.067 -0.1905,0 -0.3175,-0.0705 -0.123472,-0.0741 -0.183445,-0.17639 h -0.03528 l 0.03528,0.24694 v 0.70556 h -0.529166 v -2.49061 h 0.493889 z m 0.419805,0.24694 q -0.08467,0 -0.162278,0.0317 -0.07408,0.0282 -0.134055,0.0847 -0.05644,0.0564 -0.09172,0.13406 -0.03175,0.0776 -0.03175,0.17638 0,0.0988 0.03175,0.17992 0.03528,0.0776 0.09172,0.13406 0.05997,0.0529 0.134055,0.0847 0.07761,0.0282 0.162278,0.0282 0.08467,0 0.15875,-0.0282 0.07761,-0.0318 0.134056,-0.0847 0.05997,-0.0564 0.09172,-0.13406 0.03528,-0.0811 0.03528,-0.17992 0,-0.0988 -0.03528,-0.17638 -0.03175,-0.0776 -0.09172,-0.13406 -0.05645,-0.0564 -0.134056,-0.0847 -0.07408,-0.0317 -0.15875,-0.0317 z m 1.721558,-0.21872 h 0.03528 q 0.176388,-0.27517 0.529166,-0.27517 0.324556,0 0.483306,0.20814 0.15875,0.20814 0.15875,0.54681 V 202 H 58.51203 v -0.97014 q 0,-0.14111 -0.06703,-0.2293 -0.06703,-0.0917 -0.208139,-0.0917 -0.179916,0 -0.275166,0.13759 -0.09172,0.13758 -0.09172,0.35983 V 202 h -0.529167 v -1.72861 h 0.493889 z m 2.384781,2.32833 q -0.186972,0 -0.335139,-0.0494 -0.148166,-0.0459 -0.261055,-0.12348 -0.109361,-0.0741 -0.183445,-0.16933 -0.07055,-0.0917 -0.105833,-0.18697 l 0.508,-0.20109 q 0.04939,0.13406 0.155222,0.19756 0.105834,0.067 0.22225,0.067 0.1905,0 0.306917,-0.12347 0.119944,-0.12348 0.119944,-0.35278 v -0.0952 h -0.03528 Q 60.448784,202 60.117173,202 q -0.148167,0 -0.292806,-0.06 -0.144639,-0.0635 -0.261055,-0.17639 -0.116417,-0.11642 -0.186973,-0.28222 -0.07055,-0.16581 -0.07055,-0.37395 0,-0.20814 0.07055,-0.37394 0.07056,-0.16581 0.186973,-0.2787 0.116416,-0.11641 0.261055,-0.17639 0.144639,-0.0635 0.292806,-0.0635 0.331611,0 0.493888,0.21873 h 0.03528 v -0.16228 h 0.508 v 1.58044 q 0,0.21167 -0.06703,0.38806 -0.0635,0.17992 -0.186972,0.30692 -0.119944,0.13052 -0.292805,0.20108 -0.172861,0.0705 -0.388056,0.0705 z m 0.02117,-1.29822 q 0.07408,0 0.144639,-0.0247 0.07408,-0.0282 0.130527,-0.0776 0.05997,-0.0529 0.09525,-0.13053 0.03528,-0.0776 0.03528,-0.17992 0,-0.1023 -0.03528,-0.17991 -0.03528,-0.0776 -0.09525,-0.127 -0.05644,-0.0529 -0.130527,-0.0776 -0.07056,-0.0282 -0.144639,-0.0282 -0.07408,0 -0.148167,0.0282 -0.07055,0.0247 -0.130528,0.0776 -0.05644,0.0494 -0.09172,0.127 -0.03528,0.0776 -0.03528,0.17991 0,0.10231 0.03528,0.17992 0.03528,0.0776 0.09172,0.13053 0.05997,0.0494 0.130528,0.0776 0.07408,0.0247 0.148167,0.0247 z"
         id="path18" />
      <path
         style="font-size:3.52778px"
         d="m 54.508,206.43089 q -0.141111,0 -0.239889,-0.0988 -0.09878,-0.0988 -0.09878,-0.23988 0,-0.14112 0.09878,-0.23989 0.09878,-0.0988 0.239889,-0.0988 0.141111,0 0.239889,0.0988 0.09878,0.0988 0.09878,0.23989 0,0.14111 -0.09878,0.23988 -0.09878,0.0988 -0.239889,0.0988 z m 1.132417,-0.89958 -0.592667,-0.8502 h 0.635 l 0.261056,0.41628 h 0.03528 l 0.239889,-0.41628 h 0.656166 l -0.606778,0.8502 0.60325,0.87842 h -0.627944 l -0.271639,-0.41981 h -0.03528 l -0.264583,0.41981 h -0.627944 z m 1.460499,0.87842 v -2.52589 h 0.529167 v 2.52589 z m 1.61925,0.0564 q -0.179916,0 -0.3175,-0.0423 -0.137583,-0.0423 -0.239889,-0.10936 -0.09878,-0.0706 -0.165805,-0.15875 -0.06703,-0.0917 -0.102306,-0.18345 l 0.47625,-0.20108 q 0.04939,0.11994 0.137584,0.17639 0.08819,0.0529 0.211666,0.0529 0.105834,0 0.162278,-0.0317 0.05997,-0.0353 0.05997,-0.0882 0,-0.06 -0.05644,-0.0917 -0.05645,-0.0353 -0.179917,-0.0635 l -0.236361,-0.0494 q -0.08467,-0.0176 -0.172861,-0.0565 -0.08819,-0.0388 -0.162278,-0.1023 -0.07408,-0.0635 -0.119944,-0.14817 -0.04586,-0.0882 -0.04586,-0.20108 0,-0.12347 0.05292,-0.22225 0.05644,-0.10231 0.151695,-0.17286 0.09525,-0.0706 0.225778,-0.10936 0.130527,-0.0388 0.28575,-0.0388 0.268111,0 0.462138,0.0952 0.194028,0.0917 0.292806,0.31044 l -0.455083,0.18698 q -0.04586,-0.0917 -0.130528,-0.13406 -0.08114,-0.0423 -0.165806,-0.0423 -0.09172,0 -0.148166,0.0317 -0.05645,0.0318 -0.05645,0.0776 0,0.0494 0.05645,0.0811 0.05997,0.0282 0.144639,0.0494 l 0.268111,0.0635 q 0.264583,0.0635 0.395111,0.20461 0.130528,0.14111 0.130528,0.33161 0,0.11642 -0.05645,0.22225 -0.05292,0.10583 -0.155222,0.18697 -0.09878,0.0811 -0.239889,0.127 -0.137583,0.0494 -0.306917,0.0494 z m 1.467555,-0.93486 -0.592667,-0.8502 h 0.635 l 0.261056,0.41628 h 0.03528 l 0.239889,-0.41628 h 0.656166 l -0.606778,0.8502 0.60325,0.87842 h -0.627944 l -0.271639,-0.41981 h -0.03528 l -0.264583,0.41981 h -0.627944 z"
         id="path19" />
    </g>
    <text
       xml:space="preserve"
       transform="scale(0.26458333)"
       id="text7"
       style="font-style:normal;font-variant:normal;font-weight:normal;font-stretch:normal;font-size:5.33333px;font-family:'Product Sans Black';-inkscape-font-specification:'Product Sans Black, Normal';font-variant-ligatures:normal;font-variant-caps:normal;font-variant-numeric:normal;font-variant-east-asian:normal;text-align:start;letter-spacing:0px;writing-mode:lr-tb;direction:ltr;text-anchor:start;white-space:pre;shape-inside:url(#rect7);display:inline;opacity:0.569479;fill:#ffffff;fill-opacity:0.871134;stroke:none"><tspan
         sodipodi:role="line"
         id="tspan8">Z</tspan></text>
    <path
       style="fill:none;stroke:#ffffff;stroke-width:1.05833;stroke-dasharray:none"
       d="m 48.000001,64.999998 c 0,0 -0.07064,8.886835 0,8.999999 0.07064,0.113164 10,0 10,0"
       id="path24"
       sodipodi:nodetypes="czc"
       inkscape:export-filename="norm_icon.svg"
       inkscape:export-xdpi="347.10629"
       inkscape:export-ydpi="347.10629" />
    <path
       d="m 46.45079,75.226915 q 0,0.414445 -0.130225,0.608749 -0.129191,0.19327 -0.402043,0.19327 -0.276986,0 -0.405144,-0.19637 -0.127124,-0.196371 -0.127124,-0.603582 0,-0.410312 0.129191,-0.605649 0.129191,-0.196371 0.403077,-0.196371 0.276986,0 0.40411,0.199472 0.128158,0.198438 0.128158,0.600481 z m -0.271819,0.469223 q 0.03617,-0.08372 0.04858,-0.196371 0.01344,-0.113689 0.01344,-0.272852 0,-0.157097 -0.01344,-0.272852 -0.0124,-0.115756 -0.04961,-0.196371 -0.03617,-0.07958 -0.09922,-0.119889 -0.06201,-0.04031 -0.160197,-0.04031 -0.09715,0 -0.161231,0.04031 -0.06305,0.04031 -0.100253,0.121956 -0.03514,0.07648 -0.04857,0.199471 -0.0124,0.122991 -0.0124,0.269752 0,0.161231 0.01137,0.269751 0.01137,0.108521 0.04858,0.194304 0.03411,0.08061 0.09612,0.12299 0.06305,0.04237 0.166399,0.04237 0.09715,0 0.16123,-0.04031 0.06408,-0.04031 0.09922,-0.121956 z"
       id="text25"
       style="font-size:2.11667px;font-family:Sans;-inkscape-font-specification:'Sans, Normal';text-align:center;letter-spacing:0.529167px;text-anchor:middle;fill:#ffffff;stroke:#ffffff;stroke-width:0.264583"
       aria-label="0" />
    <path
       d="M 59.756955,76 H 58.92393 v -0.157097 h 0.320394 V 74.81144 H 58.92393 v -0.14056 q 0.06511,0 0.139527,-0.01033 0.07441,-0.01137 0.112654,-0.03204 0.04754,-0.02584 0.07442,-0.06511 0.0279,-0.04031 0.03204,-0.107487 h 0.160197 v 1.386997 h 0.314193 z"
       id="text26"
       style="font-size:2.11667px;font-family:Sans;-inkscape-font-specification:'Sans, Normal';text-align:center;letter-spacing:0.529167px;text-anchor:middle;fill:#ffffff;stroke:#ffffff;stroke-width:0.264583"
       aria-label="1" />
    <path
       style="fill:none;stroke:none;stroke-width:0.474218;stroke-dasharray:none;stroke-dashoffset:0;marker-start:url(#marker3);marker-mid:url(#marker3);marker-end:url(#marker3)"
       d="m 50.000001,71.999997 1.428572,-1.344239 1.428572,-1.344238 1.42857,-1.344238 1.428572,-1.344239"
       id="path26"
       sodipodi:nodetypes="ccccc"
       inkscape:export-filename="norm_icon.svg"
       inkscape:export-xdpi="347.10629"
       inkscape:export-ydpi="347.10629" />
    <path
       d="m 46.335035,65.122391 h -0.833026 v -0.157097 h 0.320395 v -1.031463 h -0.320395 v -0.14056 q 0.06511,0 0.139527,-0.01033 0.07441,-0.01137 0.112655,-0.03204 0.04754,-0.02584 0.07441,-0.06511 0.0279,-0.04031 0.03204,-0.107487 h 0.160197 v 1.386997 h 0.314194 z"
       id="text27"
       style="font-size:2.11667px;font-family:Sans;-inkscape-font-specification:'Sans, Normal';text-align:center;letter-spacing:0.529167px;text-anchor:middle;fill:#ffffff;stroke:#ffffff;stroke-width:0.264583"
       aria-label="1" />
    <path
       style="fill:none;stroke:#ffffff;stroke-width:1.05833;stroke-dasharray:none"
       d="m 48.000001,64.999998 c 0,0 -0.07064,8.886835 0,8.999999 0.07064,0.113164 10,0 10,0"
       id="path27"
       sodipodi:nodetypes="czc"
       inkscape:export-filename="norm_icon.svg"
       inkscape:export-xdpi="347.10629"
       inkscape:export-ydpi="347.10629" />
    <path
       d="m 46.45079,75.226915 q 0,0.414445 -0.130225,0.608749 -0.129191,0.19327 -0.402043,0.19327 -0.276986,0 -0.405144,-0.19637 -0.127124,-0.196371 -0.127124,-0.603582 0,-0.410312 0.129191,-0.605649 0.129191,-0.196371 0.403077,-0.196371 0.276986,0 0.40411,0.199472 0.128158,0.198438 0.128158,0.600481 z m -0.271819,0.469223 q 0.03617,-0.08372 0.04858,-0.196371 0.01344,-0.113689 0.01344,-0.272852 0,-0.157097 -0.01344,-0.272852 -0.0124,-0.115756 -0.04961,-0.196371 -0.03617,-0.07958 -0.09922,-0.119889 -0.06201,-0.04031 -0.160197,-0.04031 -0.09715,0 -0.161231,0.04031 -0.06305,0.04031 -0.100253,0.121956 -0.03514,0.07648 -0.04857,0.199471 -0.0124,0.122991 -0.0124,0.269752 0,0.161231 0.01137,0.269751 0.01137,0.108521 0.04858,0.194304 0.03411,0.08061 0.09612,0.12299 0.06305,0.04237 0.166399,0.04237 0.09715,0 0.16123,-0.04031 0.06408,-0.04031 0.09922,-0.121956 z"
       id="text28"
       style="font-size:2.11667px;font-family:Sans;-inkscape-font-specification:'Sans, Normal';text-align:center;letter-spacing:0.529167px;text-anchor:middle;fill:#ffffff;stroke:#ffffff;stroke-width:0.264583"
       aria-label="0" />
    <path
       d="M 59.756955,76 H 58.92393 v -0.157097 h 0.320394 V 74.81144 H 58.92393 v -0.14056 q 0.06511,0 0.139527,-0.01033 0.07441,-0.01137 0.112654,-0.03204 0.04754,-0.02584 0.07442,-0.06511 0.0279,-0.04031 0.03204,-0.107487 h 0.160197 v 1.386997 h 0.314193 z"
       id="text29"
       style="font-size:2.11667px;font-family:Sans;-inkscape-font-specification:'Sans, Normal';text-align:center;letter-spacing:0.529167px;text-anchor:middle;fill:#ffffff;stroke:#ffffff;stroke-width:0.264583"
       aria-label="1" />
    <path
       style="fill:none;stroke:none;stroke-width:0.474218;stroke-dasharray:none;stroke-dashoffset:0;marker-start:url(#marker3);marker-mid:url(#marker3);marker-end:url(#marker3)"
       d="m 50.000001,71.999997 1.428572,-1.344239 1.428572,-1.344238 1.42857,-1.344238 1.428572,-1.344239"
       id="path33"
       sodipodi:nodetypes="ccccc"
       inkscape:export-filename="norm_icon.svg"
       inkscape:export-xdpi="347.10629"
       inkscape:export-ydpi="347.10629" />
    <path
       d="m 46.335035,65.122391 h -0.833026 v -0.157097 h 0.320395 v -1.031463 h -0.320395 v -0.14056 q 0.06511,0 0.139527,-0.01033 0.07441,-0.01137 0.112655,-0.03204 0.04754,-0.02584 0.07441,-0.06511 0.0279,-0.04031 0.03204,-0.107487 h 0.160197 v 1.386997 h 0.314194 z"
       id="text33"
       style="font-size:2.11667px;font-family:Sans;-inkscape-font-specification:'Sans, Normal';text-align:center;letter-spacing:0.529167px;text-anchor:middle;fill:#ffffff;stroke:#ffffff;stroke-width:0.264583"
       aria-label="1" />
  </g>
</svg>
