<?xml version="1.0" encoding="UTF-8" standalone="no"?>
<!-- Created with Inkscape (http://www.inkscape.org/) -->

<svg
   width="10.588973mm"
   height="9.6240492mm"
   viewBox="0 0 10.588973 9.6240492"
   version="1.1"
   id="svg1"
   xmlns="http://www.w3.org/2000/svg"
   xmlns:svg="http://www.w3.org/2000/svg">
  <defs
     id="defs1" />
  <g
     id="layer1"
     transform="translate(-46.296582,-126.97178)">
    <path
       style="fill:none;stroke:#ffffff;stroke-width:1.05833;stroke-dasharray:none"
       d="m 46.857142,127.01635 c 0,0 -0.07064,8.88684 0,9.00001 0.07064,0.11316 10,0 10,0"
       id="path1-4-6" />
    <circle
       style="fill:#ffffff;stroke:#ffffff;stroke-width:0.433771;stroke-dasharray:none;stroke-dashoffset:0"
       id="path4-1"
       cx="52.816216"
       cy="133.11584"
       r="0.28333539" />
    <circle
       style="fill:#ffffff;stroke:#ffffff;stroke-width:0.433771;stroke-dasharray:none;stroke-dashoffset:0"
       id="path4-5-3"
       cx="56"
       cy="134.50021"
       r="0.28333539" />
    <circle
       style="fill:#ffffff;stroke:#ffffff;stroke-width:0.433771;stroke-dasharray:none;stroke-dashoffset:0"
       id="path4-38-8"
       cx="51"
       cy="131.47385"
       r="0.28333539" />
    <circle
       style="fill:#ffffff;stroke:#ffffff;stroke-width:0.433771;stroke-dasharray:none;stroke-dashoffset:0"
       id="path4-7-9"
       cx="53.045322"
       cy="131.52112"
       r="0.28333539" />
    <circle
       style="fill:#ffffff;stroke:#ffffff;stroke-width:0.433771;stroke-dasharray:none;stroke-dashoffset:0"
       id="path4-86-3"
       cx="55.995548"
       cy="129.33031"
       r="0.28333539" />
    <circle
       style="fill:#ffffff;stroke:#ffffff;stroke-width:0.433771;stroke-dasharray:none;stroke-dashoffset:0"
       id="path4-86-6-4"
       cx="52.712822"
       cy="129.45648"
       r="0.28333539" />
    <circle
       style="fill:#ffffff;stroke:#ffffff;stroke-width:0.433771;stroke-dasharray:none;stroke-dashoffset:0"
       id="path4-6-4"
       cx="49.716667"
       cy="128"
       r="0.28333539" />
    <circle
       style="fill:#ffffff;stroke:#ffffff;stroke-width:0.433771;stroke-dasharray:none;stroke-dashoffset:0"
       id="path4-3-6"
       cx="48"
       cy="134.39838"
       r="0.28333539" />
    <circle
       style="fill:#ffffff;stroke:#ffffff;stroke-width:0.433771;stroke-dasharray:none;stroke-dashoffset:0"
       id="path4-8-0"
       cx="49.690342"
       cy="131.24388"
       r="0.28333539" />
    <path
       style="fill:none;stroke:#ffffff;stroke-width:0.161785;stroke-dasharray:none;stroke-dashoffset:0"
       d="M 50,132.99999 H 38.000006 M 50,135 H 38.000006 M 50,137.00001 H 38.000006 M 50,139.00002 H 38.000006 M 50,141.00003 H 38.000006 M 50,143.00004 H 38.000006 M 50,132.99999 v 10.00005 m -1.999999,-10.00005 v 10.00005 m -1.999999,-10.00005 v 10.00005 m -1.999999,-10.00005 v 10.00005 m -1.999999,-10.00005 v 10.00005 m -1.999999,-10.00005 v 10.00005 m -1.999999,-10.00005 v 10.00005"
       id="path5"
       transform="matrix(0.79213527,0,0,0.8440921,17.214714,14.775819)" />
    <path
       style="fill:#ffffff;stroke:#ffffff;stroke-width:0.264583;stroke-dasharray:none;stroke-dashoffset:0"
       d="m 47.315858,135.48102 8.931134,-7.52199"
       id="path6" />
  </g>
</svg>
