<?xml version="1.0" encoding="UTF-8" standalone="no"?>
<!-- Created with Inkscape (http://www.inkscape.org/) -->

<svg
   width="11.775298mm"
   height="11.644477mm"
   viewBox="0 0 11.775298 11.644477"
   version="1.1"
   id="svg1"
   xmlns="http://www.w3.org/2000/svg"
   xmlns:svg="http://www.w3.org/2000/svg">
  <defs
     id="defs1" />
  <g
     id="layer1"
     transform="translate(-45.355968,-146.76858)">
    <path
       style="fill:none;stroke:#ffffff;stroke-width:0.282084;stroke-dasharray:none;stroke-dashoffset:0"
       d="m 41.990454,133.01149 c 0.0297,-0.0184 7.975335,-0.02 8.044868,0.029 0.06953,0.049 -0.0037,7.84478 -0.02504,7.90222 -0.02132,0.0574 -7.92867,0.0511 -7.963579,0.0511 -0.03491,0 -0.09655,-7.96197 -0.05625,-7.98232 z M 50,135 H 42.000004 M 50,137.00001 H 42.000004 M 50,139.00002 h -7.999996 m 5.999997,-6.00003 v 8.00004 m -1.999999,-8.00004 v 8.00004 m -1.999999,-8.00004 v 8.00004"
       id="path5-9"
       transform="matrix(1.4069379,0,0,1.4069379,-13.504991,-40.155211)" />
    <path
       style="fill:#f9f9f9;stroke:none;stroke-width:0.0529167;stroke-dasharray:none;stroke-opacity:0.921569"
       d="m 45.698534,147.11441 -0.01064,2.52463 2.577785,0.005 0.0053,-2.54589 z"
       id="path7" />
    <path
       style="fill:#737373;fill-opacity:1;stroke:none;stroke-width:0.0529167;stroke-dasharray:none;stroke-opacity:0.921569"
       d="m 54.163888,149.89607 2.636649,0.0199 -0.0064,2.55361 -2.628353,-0.003 z"
       id="path8" />
    <path
       style="fill:#f2f2f2;stroke:none;stroke-width:0.0529167;stroke-dasharray:none;stroke-opacity:0.921569"
       d="m 51.322039,149.90349 2.578184,-0.004 -0.0037,2.5669 -2.572545,0.008 z"
       id="path8-2" />
    <path
       style="fill:#666666;stroke:none;stroke-width:0.0529167;stroke-dasharray:none;stroke-opacity:0.921569"
       d="m 45.7259,155.45213 2.540601,-0.004 0.01883,2.64206 -2.5406,-0.008 z"
       id="path8-1" />
    <path
       style="fill:#979797;fill-opacity:1;stroke:none;stroke-width:0.0529167;stroke-dasharray:none;stroke-opacity:0.921569"
       d="m 51.34757,152.72378 2.548117,-0.008 3.9e-5,2.61199 -2.555633,-0.008 z"
       id="path8-1-5" />
    <path
       style="fill:#898989;fill-opacity:1;stroke:none;stroke-width:0.0529167;stroke-dasharray:none;stroke-opacity:0.921569"
       d="m 54.116762,155.53481 2.645833,0.003 -0.01873,2.53683 -2.645832,0.022 z"
       id="path8-1-6" />
    <path
       style="fill:#4d4d4d;stroke:none;stroke-width:0.0529167;stroke-dasharray:none;stroke-opacity:0.921569"
       d="m 48.537044,149.94717 2.540601,-0.004 0.0038,2.55187 h -2.5406 z"
       id="path8-4" />
    <path
       style="fill:#e6e6e6;stroke:none;stroke-width:0.0529167;stroke-dasharray:none;stroke-opacity:0.921569"
       d="m 48.531438,152.72707 2.551209,-0.016 0.0026,2.58044 -2.559183,-0.002 z"
       id="path9" />
    <path
       style="fill:#b3b3b3;stroke:none;stroke-width:0.0529167;stroke-dasharray:none;stroke-opacity:0.921569"
       d="m 54.149413,147.11441 2.641565,0.0106 0.01064,2.53526 -2.652193,0.005 z"
       id="path10" />
    <path
       style="fill:#9f9f9f;fill-opacity:1;stroke:none;stroke-width:0.0529167;stroke-dasharray:none;stroke-opacity:0.921569"
       d="m 45.693665,152.7241 2.588414,0.005 -0.01335,2.55386 -2.548553,0.003 z"
       id="path11" />
    <path
       style="fill:#7b7b7b;fill-opacity:1;stroke:none;stroke-width:0.0529167;stroke-dasharray:none;stroke-opacity:0.921569"
       d="m 51.311409,147.09716 2.578184,-0.004 -0.0037,2.5669 -2.572545,0.008 z"
       id="path12" />
    <path
       style="fill:#f9f9f9;fill-opacity:1;stroke:none;stroke-width:0.0529167;stroke-dasharray:none;stroke-opacity:0.921569"
       d="m 51.334424,155.5394 2.578184,-0.004 -0.0037,2.5669 -2.572545,0.008 z"
       id="path13" />
    <path
       style="fill:#b4b4b4;fill-opacity:1;stroke:none;stroke-width:0.0529167;stroke-dasharray:none;stroke-opacity:0.921569"
       d="m 48.531438,155.5334 2.551209,-0.016 0.0026,2.58044 -2.559183,-0.002 z"
       id="path14" />
    <path
       style="fill:#7c7c7c;fill-opacity:1;stroke:none;stroke-width:0.0529167;stroke-dasharray:none;stroke-opacity:0.921569"
       d="m 45.730714,149.94717 2.540601,-0.004 0.0038,2.55187 h -2.5406 z"
       id="path15" />
    <path
       style="fill:#f2f2f2;stroke:none;stroke-width:0.0529167;stroke-dasharray:none;stroke-opacity:0.921569"
       d="m 51.322039,149.90349 2.578184,-0.004 -0.0037,2.5669 -2.572545,0.008 z"
       id="path16" />
    <path
       style="fill:#e6e6e6;stroke:none;stroke-width:0.0529167;stroke-dasharray:none;stroke-opacity:0.921569"
       d="m 54.163014,152.73361 2.626375,-0.016 -0.01995,2.60299 -2.626832,-0.002 z"
       id="path9-9" />
    <path
       style="fill:#adadad;fill-opacity:1;stroke:none;stroke-width:0.0529167;stroke-dasharray:none;stroke-opacity:0.921569"
       d="m 48.515784,147.13021 2.540601,-0.004 0.0038,2.55187 h -2.5406 z"
       id="path17" />
  </g>
</svg>
