<?xml version="1.0" encoding="UTF-8" standalone="no"?>
<!-- Created with Inkscape (http://www.inkscape.org/) -->

<svg
   width="304.96173mm"
   height="249.3533mm"
   version="1.1"
   viewBox="0 0 304.96173 249.35331"
   xml:space="preserve"
   id="svg116"
   sodipodi:docname="tool_logo.svg"
   inkscape:version="1.4 (86a8ad7, 2024-10-11)"
   inkscape:export-filename="C:\Workdir\2DComboSelector\src\combo_selector\resources\icons\tool_logo.png"
   inkscape:export-xdpi="1.6657828"
   inkscape:export-ydpi="1.6657828"
   xmlns:inkscape="http://www.inkscape.org/namespaces/inkscape"
   xmlns:sodipodi="http://sodipodi.sourceforge.net/DTD/sodipodi-0.dtd"
   xmlns:xlink="http://www.w3.org/1999/xlink"
   xmlns="http://www.w3.org/2000/svg"
   xmlns:svg="http://www.w3.org/2000/svg"><sodipodi:namedview
     id="namedview116"
     pagecolor="#ffffff"
     bordercolor="#000000"
     borderopacity="0.25"
     inkscape:showpageshadow="2"
     inkscape:pageopacity="0.0"
     inkscape:pagecheckerboard="0"
     inkscape:deskcolor="#d1d1d1"
     inkscape:document-units="mm"
     inkscape:zoom="0.38890873"
     inkscape:cx="446.1201"
     inkscape:cy="685.25075"
     inkscape:window-width="1920"
     inkscape:window-height="1111"
     inkscape:window-x="-9"
     inkscape:window-y="-9"
     inkscape:window-maximized="1"
     inkscape:current-layer="svg116"
     showgrid="false"
     showguides="true"
     inkscape:export-bgcolor="#ffffff00"><inkscape:grid
       id="grid207"
       units="mm"
       originx="-969.98224"
       originy="-154.07074"
       spacingx="1"
       spacingy="1"
       empcolor="#0099e5"
       empopacity="0.30196078"
       color="#0099e5"
       opacity="0.14901961"
       empspacing="5"
       enabled="true"
       visible="false" /><inkscape:grid
       type="axonomgrid"
       id="grid208"
       units="mm"
       originx="-969.98224"
       originy="-154.07074"
       spacingx="1"
       spacingy="1"
       empcolor="#0099e5"
       empopacity="0.30196078"
       color="#0099e5"
       opacity="0.14901961"
       empspacing="5"
       dotted="false"
       gridanglex="30"
       gridanglez="30"
       enabled="true"
       visible="false" /><inkscape:page
       x="0"
       y="0"
       width="304.96173"
       height="249.3533"
       id="page2"
       margin="0"
       bleed="0" /></sodipodi:namedview><defs
     id="defs18"><inkscape:path-effect
       effect="perspective-envelope"
       up_left_point="1032.9675,181.48923"
       up_right_point="1061.3147,187.56893"
       down_left_point="1028.7002,216.15892"
       down_right_point="1063.2691,208.56409"
       id="path-effect255"
       is_visible="true"
       lpeversion="1"
       deform_type="perspective"
       horizontal_mirror="false"
       vertical_mirror="false"
       overflow_perspective="false" /><inkscape:path-effect
       effect="perspective-envelope"
       up_left_point="1020.8699,199.29728"
       up_right_point="1230.784,198.30096"
       down_left_point="1012.3475,319.12651"
       down_right_point="1236.0072,322.29466"
       id="path-effect233"
       is_visible="true"
       lpeversion="1"
       deform_type="perspective"
       horizontal_mirror="false"
       vertical_mirror="false"
       overflow_perspective="false" /><inkscape:path-effect
       effect="envelope"
       id="path-effect213"
       is_visible="true"
       lpeversion="1"
       yy="true"
       xx="false"
       bendpath1="m 823.62873,385.13075 c 57.02425,-2.87466 114.06183,-5.65604 172.30475,0"
       bendpath2="M 995.93348,385.13075 V 409.7339"
       bendpath3="M 823.62873,409.7339 H 995.93348"
       bendpath4="M 823.62873,385.13075 V 409.7339"
       bendpath1-nodetypes="cc" /><linearGradient
       id="linearGradient123"
       x1="99.334"
       x2="99.334"
       y1="120.49682"
       y2="157.08"
       gradientUnits="userSpaceOnUse"><stop
         stop-color="#b486fc"
         offset="0.40459517"
         id="stop13"
         style="stop-color:#fce186;stop-opacity:1;" /><stop
         stop-color="#fcdf86"
         stop-opacity=".96863"
         offset="1"
         id="stop14"
         style="stop-color:#86bdfc;stop-opacity:1;" /></linearGradient><linearGradient
       id="linearGradient127"
       x1="99.334"
       x2="99.334"
       y1="120.49682"
       y2="157.08"
       gradientUnits="userSpaceOnUse"><stop
         stop-color="#b486fc"
         offset="0.39687499"
         id="stop17"
         style="stop-color:#fce186;stop-opacity:1;" /><stop
         stop-color="#fddc86"
         stop-opacity=".91765"
         offset="1"
         id="stop18"
         style="stop-color:#86bdfc;stop-opacity:1;" /></linearGradient><linearGradient
       inkscape:collect="always"
       xlink:href="#linearGradient123"
       id="linearGradient206"
       gradientUnits="userSpaceOnUse"
       x1="99.334"
       y1="120.49682"
       x2="105.85359"
       y2="167.30663"
       gradientTransform="matrix(0.89421213,0,0,0.89421213,10.247379,16.886506)" /><linearGradient
       inkscape:collect="always"
       xlink:href="#linearGradient127"
       id="linearGradient207"
       gradientUnits="userSpaceOnUse"
       x1="99.334"
       y1="120.49682"
       x2="105.85359"
       y2="167.30663"
       gradientTransform="matrix(0.89421213,0,0,0.89421213,10.247379,16.886506)" /><filter
       inkscape:collect="always"
       style="color-interpolation-filters:sRGB"
       id="filter254"
       x="-0.16839157"
       y="-0.29028137"
       width="1.3432576"
       height="1.5804348"><feGaussianBlur
         inkscape:collect="always"
         stdDeviation="14.640507"
         id="feGaussianBlur254" /></filter></defs><path
     d="m 0.24963765,133.95024 c 4.59294995,-2.45749 1.38153995,-16.27931 3.78459995,-16.69043 2.40306,-0.41112 2.55268,13.8349 5.84255,12.0738 2.9355804,-1.57179 6.0607004,-3.2764 7.6859904,-4.20591 2.02547,-1.15837 0.36605,-34.04011 2.34569,-34.34487 1.97964,-0.30475 5.15087,30.41688 7.32841,29.2511 3.11736,-1.66918 5.01546,-2.05704 9.36016,-4.38482 1.3569,-0.72702 0.7852,-17.61216 3.2305,-18.00659 2.4453,-0.39443 3.6722,14.98684 6.22,13.90408 2.5479,-1.08277 7.4984,-3.5268 7.4984,-3.5268"
     fill="#86bdfc"
     stroke-width="1.0583"
     style="fill:#b486fc;fill-opacity:1;stroke:#333333;stroke-dashoffset:9.1;paint-order:normal"
     id="path51"
     sodipodi:nodetypes="czcszcszzc" /><path
     d="m 83.485138,175.39841 c 3.7683,-2.3281 1.5181,-12.26154 3.8264,-12.929 2.3084,-0.66746 1.4174,9.43269 4.2817,7.9229 1.52,-0.80118 3.0399,-1.7386 4.5571,-2.41039 2.0378,-0.90227 0.1842,-29.62608 2.216,-29.85494 2.031702,-0.22886 4.707302,26.14656 6.602402,24.97656 2.736,-1.6889 5.2181,-2.95923 9.1641,-5.39183 1.2441,-0.76683 0.7665,-17.8582 2.7021,-17.92 1.9357,-0.0618 2.8483,14.70154 4.4053,13.92554 3.2966,-1.6425 9.7456,-4.96274 9.7456,-4.96274"
     fill="#fc868d"
     stroke-width="1.0583"
     style="stroke:#333333;stroke-dashoffset:9.1;paint-order:normal"
     id="path59"
     sodipodi:nodetypes="czsszcszcc" /><g
     id="g1"
     transform="translate(-969.98216,-154.07074)"><path
       d="m 1031.5544,192.96989 c 0,0 1.2195,0.48617 2.2383,0.99912 1.9842,0.99903 1.8196,-4.87764 3.2901,-4.61169 1.4154,0.25598 0.067,6.30317 2.6508,7.57574 0.9465,0.46599 2.8463,1.34789 2.8463,1.34789 1.6483,0.81254 2.223,-14.18063 3.8373,-13.90687 1.5355,0.2604 -0.2414,15.70603 1.8643,16.74345 3.1007,1.52753 3.7503,1.84169 6.8202,3.35441 1.814,0.89382 1.4818,-6.8384 2.4662,-6.77688 0.95,0.0594 0.9412,8.48576 2.9006,9.45057 1.2442,0.61251 2.8006,1.41846 2.8006,1.41846"
       fill="#b486fc"
       style="fill:#fce186;fill-opacity:1;stroke:#000000;stroke-width:0.750094;stroke-dasharray:none;stroke-dashoffset:9.1;paint-order:normal"
       id="path112"
       sodipodi:nodetypes="cszcczsszcc"
       inkscape:path-effect="#path-effect255"
       inkscape:original-d="m 1016.9988,181.74391 c 0,0 1.2374,0.56456 2.3082,1.19724 2.1524,1.27174 1.3835,-7.33637 3.0353,-7.19955 1.6517,0.13682 0.6606,9.38499 3.6916,11.13549 1.1547,0.66667 3.5461,1.96865 3.5461,1.96865 2.1651,1.25 2.3227,-24.25304 4.7773,-24.38957 2.4546,-0.13653 0.058,27.22195 3.0889,28.97195 4.7632,2.75 5.8101,3.3447 11.0058,6.3447 3.2787,1.893 3.44,-12.10796 5.4485,-12.00663 2.0085,0.10133 0.8459,15.69481 4.751,17.94981 2.5981,1.5 5.9782,3.52841 5.9782,3.52841"
       transform="matrix(1.7171066,0,0,1.7171066,-757.72211,-150.11568)" /><path
       d="m 983.39378,199.08012 c 0,0 9.43894,5.14727 12.98294,7.19367 1.299,0.75 2.62318,-16.35915 5.29298,-17.51552 2.6698,-1.15637 1.0806,21.06745 4.3605,22.96105 3.2798,1.8936 5.1771,2.91155 9.0741,5.16155 1.299,0.75 2.6171,-12.31145 4.206,-11.51381 1.5889,0.79764 -0.052,13.96074 2.4136,15.63167 0.8278,0.561 2.6128,1.44834 3.0459,1.69834 1.0104,0.58333 2.271,-7.97193 3.6181,-7.35165 1.3471,0.62029 0.1041,9.65243 1.3373,10.36443 0.8758,0.50567 1.299,0.87027 1.299,0.87027"
       fill="#fcb486"
       style="stroke:#000000;stroke-width:1.0583;stroke-dashoffset:9.1;paint-order:normal"
       id="path113"
       sodipodi:nodetypes="cszzszsszsc" /><path
       d="m 1050.6326,160.89127 7.4158,4.06954 c 2.5684,1.40946 2.9708,-8.99703 5.1416,-8.18639 2.1707,0.81065 0.2849,11.57874 3.5921,13.48814 3.8971,2.25 2.8917,1.57547 6.7886,3.82547 2.165,1.25 5.2037,-19.48814 7.5608,-19.48814 2.3571,0 -1.6734,22.9517 1.7495,24.9277 3.0311,1.75 3.6857,1.99407 5.8508,3.24407 3.0311,1.75 5.1996,-17.11735 6.7878,-16.66993 1.5882,0.44742 -0.5055,20.00821 1.7633,21.40955 1.7102,1.05636 4.8779,3.13019 4.8779,3.13019"
       fill="#86fca7"
       style="stroke:#000000;stroke-width:1.0583;stroke-dashoffset:9.1;paint-order:normal"
       id="path114"
       sodipodi:nodetypes="cszsszsszsc" /></g><path
     style="fill:#666666;fill-opacity:1;stroke:#666666;stroke-width:2.64583;stroke-dasharray:none;stroke-opacity:0.972549;paint-order:stroke markers fill;filter:url(#filter254)"
     d="m 50.922638,97.13534 -0.5753,13.85832 101.263302,54.1193 115.4545,-62.7784 -115.695,-63.5 z"
     id="path254" /><g
     id="g232"
     transform="translate(-969.642,-167.67719)"
     inkscape:path-effect="#path-effect233"><g
       id="g233"><g
         transform="translate(1017.8164,103.71685)"
         id="g206"><g
           transform="translate(-52.589,58.731)"
           stroke="#323940"
           stroke-width="1.5875"
           id="g205"><path
             d="m 52.138426,90.047169 c 0.268974,1.495242 104.989354,57.692371 104.989354,57.692371 0,0 109.91331,-55.820597 110.37727,-56.839815 C 267.96858,89.88144 159.38548,36.347025 158.7948,36.359837 158.20422,36.372647 51.869904,88.554442 52.138426,90.047169 Z M 193.84692,128.75938 87.459907,71.558597 M 230.49402,109.84713 122.65163,54.099984 M 120.83672,127.79853 230.88684,71.90296 M 87.456546,109.61094 194.14202,54.094822"
             fill="#e0e0e0"
             stroke-dashoffset="2.4077"
             style="paint-order:normal"
             id="path203"
             sodipodi:nodetypes="zczzzcccccccc"
             inkscape:original-d="m 52.081,84.931 c 0.358099,1.566409 99.526,57.415 99.526,57.415 0,0 99.08819,-56.310634 99.541,-57.346 0.45281,-1.035366 -99.03119,-57.51094 -99.593,-57.5 -0.56181,0.01094 -99.832099,55.864591 -99.474,57.431 z M 184.441,123.36 84.719786,65.312193 M 217.49,104.28 117.55835,46.630589 M 118.2361,123.096 218.62178,65.562778 M 86.6021,105.001 184.9431,46.778" /><path
             d="m 52.138426,90.047169 c -0.510257,0.698329 -0.892248,9.18643 -0.826739,9.8832 0.06556,0.697301 104.169053,58.320691 105.595533,58.303411 1.42706,-0.0173 111.241,-57.54278 111.241,-57.54278 0,0 0.11158,-7.672713 -0.64317,-9.791275 -0.75294,-2.113443 -110.42504,56.839625 -110.42504,56.839625 0,0 -104.26375,-58.619851 -104.941584,-57.692181 z"
             fill="#999999"
             stroke-dashoffset="9.1"
             style="paint-order:normal"
             id="path204"
             sodipodi:nodetypes="szzczcs"
             inkscape:original-d="m 52.081,84.931 c -0.440056,0.734397 -0.228457,9.595635 -0.11909,10.319 0.109367,0.723365 98.31939,57.28607 99.593,57.25 1.27361,-0.0361 99.8,-57.619 99.8,-57.619 0,0 0.38774,-7.736856 -0.20691,-9.881 -0.59466,-2.144144 -99.58388,57.3464 -99.58388,57.3464 0,0 -98.898142,-58.391652 -99.48312,-57.4154 z" /><path
             d="m 157.06423,147.74285 -0.16096,10.39111"
             fill="#e0e0e0"
             stroke-dashoffset="9.1"
             style="paint-order:normal"
             id="path205"
             inkscape:original-d="m 151.55,142.35 v 10.054" /></g></g><path
         d="m 76.225312,151.08595 29.491068,-15.3136 29.69507,15.2259 -30.50852,15.49587 z"
         fill="url(#linearGradient123)"
         stroke="url(#linearGradient127)"
         stroke-dashoffset="9.1"
         stroke-width="0.946344"
         style="fill:url(#linearGradient206);stroke:url(#linearGradient207);paint-order:normal"
         id="path206"
         sodipodi:nodetypes="ccccc"
         transform="translate(1017.8164,103.71685)"
         inkscape:original-d="M 71.955936,145.7625 99.096928,129.74427 126.6147,145.43239 98.785467,161.38724 Z" /></g><path
       style="fill:#999999;fill-opacity:1;stroke:#999999;stroke-width:0.132292;stroke-dasharray:none;stroke-opacity:1"
       d="m 1123.6599,236.07131 -0.035,2.99742 -30.5943,15.65155 -2.557,-1.37293 z"
       id="path208"
       sodipodi:nodetypes="ccccc"
       inkscape:original-d="m 1116.9828,229.87734 0.01,3.14348 -28.1656,16.3773 -2.4264,-1.41165 z" /><path
       style="fill:#cccccc;fill-opacity:1;stroke:#cccccc;stroke-width:0.132292;stroke-dasharray:none;stroke-opacity:1"
       d="m 1123.762,239.06563 30.3696,15.63952 2.8647,-1.46104 -33.1949,-17.17039 z"
       id="path209"
       sodipodi:nodetypes="ccccc"
       inkscape:original-d="m 1117.1207,233.01735 28.1374,16.11807 2.623,-1.50978 -30.7663,-17.74592 z" /></g><path
     d="m 36.551338,155.26659 c 5.6581,-1.68892 2.7295,-14.5239 4.4448,-15.26557 1.7152,-0.74165 1.4798,11.75727 5.0663,10.12645 3.6584,-1.6634 2.1412,-1.00159 4.0777,-1.85417 2.0411,-0.89864 -0.122,-32.99789 2.5126,-34.72455 2.6297,-1.72701 3.9234,31.6196 6.2798,30.35636 3.3163,-1.77829 10.1447,-4.92162 14.3267,-7.16737 1.2837,-0.68942 1.2082,-21.66065 2.8285,-22.88503 1.6204,-1.22438 4.1774,19.8138 5.7005,19.16903 3.1492,-1.3314 8.0745,-3.63781 8.0745,-3.63781"
     fill="url(#linearGradient125)"
     stroke="#333333"
     stroke-width="1.0583"
     style="fill:#86bdfc;fill-opacity:1;stroke-dashoffset:9.1;paint-order:normal"
     id="path111"
     sodipodi:nodetypes="czsszcszcc" /><path
     id="path207"
     style="fill:#3b4148;stroke:#f9f9f9;stroke-width:1.32292"
     inkscape:transform-center-x="2.1260244"
     inkscape:transform-center-y="-1.7634621"
     d="m 156.38574,87.44232 c -0.9235,1.00315 13.9919,35.08605 15.1231,34.71775 0.9335,-0.30395 2.1131,-7.60977 4.4335,-12.23909 l 17.018,16.03531 4.4323,-4.70395 -16.9341,-15.95627 c 4.5692,-2.61156 11.5329,-4.51413 11.7355,-5.37146 0.2543,-1.07608 -34.8847,-13.48543 -35.8083,-12.48229 z" /><g
     id="text202"
     style="font-size:28.2222px;font-family:Sans;-inkscape-font-specification:'Sans, Normal';letter-spacing:1.32292px;fill:#6683ff;fill-opacity:1;stroke:#3b4148;stroke-width:1.32292"
     aria-label="2D Combo&#10;Selector"
     transform="translate(-753.26073,-206.14537)"><path
       style="font-size:31.75px;font-family:sans-serif;-inkscape-font-specification:'sans-serif, Normal';text-align:center;text-anchor:middle;fill:#6683ff;fill-opacity:1;stroke:#000000;stroke-width:2.64583;stroke-dasharray:none;paint-order:stroke markers fill"
       d="m 838.47269,408.84176 c -5.20824,0.009 -10.41675,0.0177 -15.6255,0.0268 0.0506,-1.07954 0.094,-2.15888 0.1303,-3.23804 1.11641,-0.93851 2.2268,-1.88253 3.33225,-2.83298 1.11561,-0.95045 2.14814,-1.90066 3.09788,-2.84923 2.00103,-1.98016 3.3584,-3.57532 4.08075,-4.74113 0.72431,-1.17962 1.07371,-2.44354 1.04413,-3.78412 -0.027,-1.22458 -0.45422,-2.1649 -1.27237,-2.816 -0.80836,-0.66221 -1.92258,-0.95978 -3.33813,-0.89745 -0.94049,0.0414 -1.95134,0.25368 -3.03457,0.63366 -1.08323,0.37998 -2.13426,0.93322 -3.15698,1.65672 -0.0517,0.002 -0.10331,0.004 -0.15497,0.006 -0.033,-1.0838 -0.0732,-2.16743 -0.12072,-3.25087 0,0 1.67897,-0.7735 2.88385,-1.13417 1.21546,-0.36127 2.39612,-0.57201 3.54349,-0.62888 2.36696,-0.11731 4.25121,0.37295 5.64357,1.48694 1.39036,1.10216 2.11931,2.66416 2.16403,4.67198 0.0201,0.90278 -0.0793,1.75132 -0.29643,2.54383 -0.20697,0.78162 -0.52619,1.52848 -0.95676,2.2394 -0.39979,0.66771 -0.87435,1.32524 -1.42349,1.97189 -0.53861,0.64617 -1.1991,1.36258 -1.98195,2.14561 -1.11733,1.12648 -2.27761,2.21492 -3.48003,3.26543 -1.20129,1.03929 -2.33238,1.99958 -3.38558,2.87917 4.13831,-0.0291 8.27608,-0.0581 12.41325,-0.0864 -0.0307,0.91049 -0.0661,1.82104 -0.10602,2.73164 z m 26.20769,-12.45348 c -0.001,2.26085 -0.48276,4.31961 -1.43425,6.16326 -0.94144,1.84405 -2.19458,3.27188 -3.74431,4.28436 -1.07553,0.70112 -2.27121,1.20569 -3.58453,1.51631 -1.30365,0.31075 -3.01342,0.46604 -5.13235,0.4694 -1.9426,0.003 -3.88524,0.006 -5.82791,0.009 0.33899,-8.02491 0.33702,-16.04701 -0.006,-24.06631 1.92316,-0.0884 3.84646,-0.17552 5.76987,-0.261 2.25506,-0.10022 4.04989,-0.003 5.38719,0.29335 1.3466,0.28484 2.48995,0.71338 3.42897,1.28596 1.60378,0.9895 2.86592,2.35012 3.77448,4.07987 0.90814,1.72899 1.37,3.80875 1.36876,6.22541 z m -3.2026,0.0166 c 4.5e-4,-1.93912 -0.33029,-3.56741 -0.97893,-4.87641 -0.64893,-1.30962 -1.61145,-2.32314 -2.88001,-3.03917 -0.92263,-0.51879 -1.89944,-0.86189 -2.9284,-1.03136 -1.02957,-0.18049 -2.25699,-0.24193 -3.68324,-0.18564 -0.96099,0.0379 -1.92198,0.0762 -2.88297,0.11483 0.2006,6.22381 0.20161,12.44887 0.003,18.67518 0.96048,-0.006 1.92093,-0.0125 2.88134,-0.0186 1.47703,-0.009 2.76575,-0.13203 3.86726,-0.36984 1.11154,-0.23782 2.13558,-0.67363 3.06971,-1.30993 1.16486,-0.79251 2.04371,-1.83499 2.62999,-3.12657 0.59629,-1.29102 0.90177,-2.90447 0.90222,-4.83244 z m 39.58882,10.47595 c -0.57183,0.27973 -1.0922,0.54167 -1.56095,0.78589 -0.45839,0.24419 -1.06189,0.50003 -1.81058,0.76712 -0.63425,0.22068 -1.32491,0.40635 -2.07195,0.5571 -0.73699,0.16232 -1.54985,0.24344 -2.43848,0.24384 -1.6739,7.5e-4 -3.19167,-0.25807 -4.55273,-0.77318 -1.35053,-0.52663 -2.51771,-1.34399 -3.50536,-2.44996 -0.96771,-1.08338 -1.7141,-2.45503 -2.24825,-4.11673 -0.534,-1.67318 -0.79413,-3.61324 -0.79123,-5.82591 0.003,-2.09854 0.25913,-3.97934 0.77825,-5.64686 0.51909,-1.66747 1.27031,-3.08635 2.26196,-4.25749 0.96109,-1.13577 2.12641,-2.01655 3.49996,-2.63931 1.38365,-0.62293 2.92434,-0.95763 4.62119,-0.99871 1.24156,-0.0301 2.48113,0.10897 3.71736,0.41865 1.24638,0.30941 2.6307,0.87337 4.1483,1.69535 0.0154,1.36442 0.0273,2.72881 0.036,4.09316 -0.0773,0.001 -0.15463,0.002 -0.23194,0.003 -1.27567,-1.17752 -2.54338,-2.02551 -3.79872,-2.54642 -1.25546,-0.52096 -2.59684,-0.76494 -4.02222,-0.73388 -1.16712,0.0254 -2.21734,0.26307 -3.15035,0.71041 -0.92307,0.43569 -1.74381,1.10436 -2.46489,2.00449 -0.70086,0.87685 -1.24488,1.97765 -1.63726,3.30301 -0.38217,1.31375 -0.57142,2.8277 -0.57394,4.54475 -0.003,1.79724 0.20194,3.33905 0.62116,4.62927 0.42951,1.29006 0.9805,2.3399 1.65826,3.15045 0.70799,0.84461 1.53674,1.47255 2.48835,1.88284 0.96214,0.39874 1.9797,0.59728 3.05276,0.59394 1.47547,-0.005 2.86304,-0.29132 4.16098,-0.86305 1.29785,-0.57169 2.51575,-1.42816 3.65091,-2.57118 0.0721,-3.5e-4 0.14422,-6.9e-4 0.21633,-0.001 -0.0144,1.34673 -0.032,2.69343 -0.0529,4.0401 z m 20.18021,-7.91934 c -0.0104,3.19361 -0.73898,5.71543 -2.19217,7.56421 -1.45347,1.84913 -3.39798,2.77256 -5.82681,2.77291 -2.44982,3.5e-4 -4.38461,-0.92205 -5.80676,-2.76076 -1.41228,-1.83929 -2.09862,-4.34392 -2.08091,-7.5217 0.0177,-3.17734 0.73187,-5.69202 2.16069,-7.54658 1.43874,-1.86583 3.37727,-2.81319 5.81956,-2.82941 2.42133,-0.0161 4.35212,0.90595 5.78865,2.7623 1.43612,1.8441 2.14811,4.36605 2.13775,7.55903 z m -2.99186,0.004 c 0.009,-2.53753 -0.4227,-4.42009 -1.29416,-5.64462 -0.87164,-1.23651 -2.08528,-1.85078 -3.63928,-1.84178 -1.57477,0.009 -2.79899,0.63736 -3.67441,1.87997 -0.86523,1.23102 -1.2995,3.11086 -1.31261,5.64075 -0.0127,2.44848 0.4077,4.30554 1.27214,5.57544 0.86423,1.25777 2.07974,1.88683 3.64774,1.88515 1.54718,-0.002 2.76368,-0.62772 3.6467,-1.87991 0.89327,-1.26374 1.34463,-3.13565 1.35388,-5.615 z m 34.03187,9.80438 c -0.97049,-0.001 -1.94099,-0.002 -2.9115,-0.003 -0.0784,-3.67308 -0.11785,-7.34433 -0.11836,-11.01374 -1.2e-4,-0.83078 -0.0342,-1.63317 -0.10244,-2.40727 -0.0581,-0.77404 -0.19203,-1.39339 -0.40382,-1.85877 -0.23197,-0.50024 -0.5669,-0.8814 -1.00568,-1.14322 -0.43865,-0.26174 -1.07379,-0.40014 -1.90514,-0.41363 -0.81087,-0.0132 -1.62422,0.20591 -2.43891,0.65871 -0.81461,0.44121 -1.62952,1.01163 -2.44412,1.71189 0.0294,0.26768 0.0534,0.58168 0.0725,0.94223 0.0191,0.34887 0.0281,0.69765 0.0272,1.04634 -0.0116,4.15523 0.01,8.31211 0.0639,12.47063 -0.97058,-6.4e-4 -1.94118,-0.001 -2.91179,-0.002 -0.0382,-3.70572 -0.0546,-7.4103 -0.0494,-11.11375 0.001,-0.86179 -0.0324,-1.67725 -0.10118,-2.44642 -0.0585,-0.78078 -0.19364,-1.40494 -0.40656,-1.87285 -0.23322,-0.50298 -0.56959,-0.87898 -1.00961,-1.12774 -0.43987,-0.26036 -1.07599,-0.39445 -1.90812,-0.4011 -0.79108,-0.006 -1.58884,0.2096 -2.39261,0.64843 -0.79352,0.43891 -1.58719,1.00138 -2.38098,1.68768 -0.0195,4.87297 -0.0219,9.74715 -0.007,14.62254 -0.97068,-2.2e-4 -1.94138,-4e-4 -2.91209,-5.3e-4 -0.004,-6.53334 0.0106,-13.06492 0.0436,-19.59474 0.96723,0.003 1.93436,0.007 2.90138,0.0125 -0.005,0.7244 -0.009,1.44882 -0.0127,2.17328 0.90915,-0.84869 1.81317,-1.50872 2.71161,-1.98067 0.90869,-0.47185 1.87275,-0.7024 2.89111,-0.69207 1.17265,0.0119 2.16226,0.30343 2.96863,0.87188 0.81676,0.56866 1.42015,1.34987 1.81257,2.34285 1.17976,-1.10198 2.25754,-1.88689 3.22962,-2.35798 0.97231,-0.48274 2.00914,-0.71247 3.10883,-0.69059 1.89155,0.0376 3.27166,0.71712 4.14632,2.02499 0.88554,1.29725 1.31506,3.09301 1.30877,5.39281 -0.0114,4.16839 0.034,8.33944 0.13614,12.51312 z m 21.8518,-9.37921 c 0.0161,1.54833 -0.15806,2.93776 -0.53311,4.17342 -0.36485,1.23603 -0.87012,2.27394 -1.52604,3.11577 -0.6956,0.87475 -1.4692,1.53619 -2.32647,1.98224 -0.85738,0.43467 -1.81313,0.65343 -2.86688,0.65259 -0.98146,-7.8e-4 -1.84422,-0.131 -2.58761,-0.39232 -0.74281,-0.24996 -1.47783,-0.59133 -2.20376,-1.02496 -0.0521,0.29502 -0.1038,0.59016 -0.1552,0.8854 -0.90845,-0.001 -1.81691,-0.003 -2.72539,-0.004 -0.28751,-8.87527 -0.24332,-17.73525 0.13257,-26.57991 0.97106,0.0416 1.94204,0.085 2.91294,0.13046 -0.14545,3.14491 -0.24463,6.29196 -0.29756,9.44114 0.82226,-0.71164 1.69647,-1.28156 2.62042,-1.71065 0.92437,-0.44045 1.95703,-0.636 3.09578,-0.58951 2.03322,0.083 3.60196,1.00502 4.7335,2.73638 1.14259,1.733 1.69491,4.12055 1.72681,7.18403 z m -2.97909,0.0126 c -0.0214,-2.22793 -0.34554,-3.9208 -1.00924,-5.09318 -0.6623,-1.18126 -1.74062,-1.80427 -3.24728,-1.85555 -0.83998,-0.0286 -1.69405,0.14546 -2.56034,0.52526 -0.86614,0.36851 -1.67147,0.86026 -2.41448,1.4758 -0.0307,3.62635 -6e-5,7.25553 0.0918,10.88753 0.83313,0.41453 1.54685,0.70218 2.13818,0.86413 0.6019,0.16208 1.27876,0.245 2.03043,0.24963 1.60712,0.01 2.84086,-0.55599 3.7102,-1.68652 0.88111,-1.14398 1.28413,-2.92726 1.26069,-5.3671 z m 23.39541,0.75715 c 0.0605,2.83355 -0.51845,5.05339 -1.84433,6.69566 -1.32454,1.64062 -3.18455,2.4823 -5.61555,2.47923 -2.44829,-0.003 -4.46041,-0.85355 -5.99257,-2.58765 -1.51988,-1.73177 -2.32667,-4.10598 -2.36566,-7.09004 -0.039,-2.98305 0.70716,-5.317 2.16831,-6.95975 1.47523,-1.65716 3.4456,-2.39503 5.87164,-2.24271 2.40898,0.15125 4.28169,1.12622 5.66212,2.87071 1.38384,1.73796 2.05554,4.00241 2.11604,6.83455 z m -2.97475,-0.10655 c -0.0447,-2.27821 -0.45826,-3.98104 -1.31033,-5.13399 -0.84949,-1.16019 -2.03696,-1.79296 -3.58197,-1.87681 -1.5639,-0.0849 -2.79806,0.41845 -3.68463,1.52301 -0.87384,1.09131 -1.32227,2.82342 -1.28831,5.17445 0.0329,2.27599 0.53434,4.01898 1.45871,5.20844 0.925,1.18008 2.18095,1.77088 3.74504,1.7858 1.54503,0.0147 2.71472,-0.54467 3.52623,-1.66007 0.82352,-1.12898 1.17891,-2.79452 1.13526,-5.02083 z"
       id="path210"
       sodipodi:nodetypes="ccccccscssccccscsccccccccscccsccsccssssccsccscccsccccscscssccsccccsscccscccsscccssscscscsscscscscsccsccsscccsccscccsccccccccscccscscscccsccccccccscsscsccccscsssscscscsscscscscs"
       inkscape:path-effect="#path-effect213"
       inkscape:original-d="m 839.25568,409.2533 h -15.62695 v -3.24012 l 3.25562,-2.79052 c 1.09554,-0.93018 2.11356,-1.85519 3.05407,-2.77503 1.98438,-1.92236 3.34347,-3.44681 4.07727,-4.57336 0.73381,-1.13688 1.10071,-2.36161 1.10071,-3.6742 0,-1.19889 -0.39791,-2.13424 -1.19372,-2.80603 -0.78549,-0.68213 -1.8862,-1.02319 -3.30213,-1.02319 -0.94051,0 -1.95854,0.16536 -3.05408,0.49609 -1.09554,0.33073 -2.16524,0.83716 -3.2091,1.51929 h -0.15503 v -3.25561 c 0,0 1.71049,-0.69247 2.93005,-0.99219 1.2299,-0.29973 2.41846,-0.44959 3.56568,-0.44959 2.36678,0 4.22196,0.57361 5.56555,1.72083 1.34359,1.13688 2.01538,2.682 2.01538,4.63537 0,0.8785 -0.11369,1.70016 -0.34107,2.46497 -0.21704,0.75447 -0.5426,1.47278 -0.97668,2.15491 -0.40307,0.64079 -0.8785,1.27124 -1.42627,1.89135 -0.53743,0.62012 -1.19372,1.30742 -1.96887,2.06189 -1.10588,1.08521 -2.24793,2.13941 -3.42615,3.1626 -1.17822,1.01286 -2.27893,1.95337 -3.30212,2.82153 h 12.41784 z m 25.98808,-11.51868 c 0,2.09806 -0.45992,3.99975 -1.37976,5.70508 -0.9095,1.70532 -2.12389,3.02824 -3.64318,3.96875 -1.0542,0.65112 -2.23242,1.12137 -3.53467,1.41076 -1.29191,0.28939 -2.99724,0.43409 -5.11597,0.43409 h -5.8291 v -23.08387 h 5.76709 c 2.25309,0 4.0411,0.16537 5.36401,0.4961 1.33325,0.32039 2.4598,0.76481 3.37964,1.33325 1.57097,0.98185 2.7957,2.28927 3.6742,3.92224 0.87849,1.63297 1.31774,3.57084 1.31774,5.8136 z m -3.2091,-0.0465 c 0,-1.80867 -0.31523,-3.33313 -0.94568,-4.57336 -0.63045,-1.24024 -1.57096,-2.21693 -2.82153,-2.93006 -0.90951,-0.51676 -1.87586,-0.87333 -2.89905,-1.0697 -1.02319,-0.20671 -2.24793,-0.31006 -3.6742,-0.31006 h -2.88354 v 17.81287 h 2.88354 c 1.47795,0 2.76469,-0.10852 3.86023,-0.32556 1.10588,-0.21705 2.11874,-0.62012 3.03858,-1.20923 1.14721,-0.73381 2.00504,-1.70016 2.57348,-2.89905 0.57878,-1.19889 0.86817,-2.69751 0.86817,-4.49585 z m 39.80636,9.89087 c -0.56844,0.24805 -1.0852,0.48059 -1.55029,0.69763 -0.45475,0.21704 -1.0542,0.44442 -1.79834,0.68213 -0.63045,0.19637 -1.31775,0.36174 -2.06189,0.49609 -0.73381,0.14469 -1.54513,0.21704 -2.43396,0.21704 -1.67432,0 -3.19877,-0.23254 -4.57336,-0.69763 -1.36426,-0.47542 -2.55282,-1.21439 -3.56568,-2.21692 -0.99219,-0.98185 -1.76733,-2.22725 -2.32544,-3.7362 -0.55811,-1.51929 -0.83716,-3.28145 -0.83716,-5.2865 0,-1.90169 0.26872,-3.60185 0.80616,-5.10046 0.53743,-1.49862 1.31258,-2.76469 2.32544,-3.79822 0.98185,-1.00253 2.16524,-1.76734 3.55017,-2.29444 1.39526,-0.5271 2.94038,-0.79065 4.63537,-0.79065 1.24023,0 2.4753,0.14986 3.7052,0.44959 1.24023,0.29972 2.61483,0.82682 4.12378,1.5813 v 3.64319 h -0.23254 c -1.27124,-1.06454 -2.53215,-1.83969 -3.78272,-2.32544 -1.25057,-0.48576 -2.58899,-0.72864 -4.01526,-0.72864 -1.16789,0 -2.22208,0.1912 -3.16259,0.57361 -0.93018,0.37207 -1.76217,0.95601 -2.49597,1.75183 -0.71314,0.77515 -1.27125,1.757 -1.67432,2.94556 -0.39274,1.17822 -0.58911,2.54248 -0.58911,4.09277 0,1.62264 0.21704,3.0179 0.65112,4.18579 0.44442,1.16789 1.01286,2.11873 1.70532,2.85254 0.72347,0.76481 1.5658,1.33325 2.52698,1.70532 0.97152,0.36173 1.99471,0.5426 3.06958,0.5426 1.47795,0 2.86288,-0.25321 4.15479,-0.75964 1.29191,-0.50643 2.50113,-1.26607 3.62768,-2.27893 h 0.21704 z m 20.18999,-6.97632 c 0,2.82153 -0.72347,5.04879 -2.17041,6.68176 -1.44694,1.63298 -3.38481,2.44947 -5.8136,2.44947 -2.44947,0 -4.39767,-0.81649 -5.84461,-2.44947 -1.43661,-1.63297 -2.15491,-3.86023 -2.15491,-6.68176 0,-2.82153 0.7183,-5.04879 2.15491,-6.68176 1.44694,-1.64331 3.39514,-2.46497 5.84461,-2.46497 2.42879,0 4.36666,0.82166 5.8136,2.46497 1.44694,1.63297 2.17041,3.86023 2.17041,6.68176 z m -3.00757,0 c 0,-2.24275 -0.43925,-3.90673 -1.31775,-4.99194 -0.8785,-1.09554 -2.09806,-1.64331 -3.65869,-1.64331 -1.5813,0 -2.8112,0.54777 -3.6897,1.64331 -0.86817,1.08521 -1.30225,2.74919 -1.30225,4.99194 0,2.17041 0.43925,3.81889 1.31775,4.94544 0.8785,1.11621 2.10323,1.67431 3.6742,1.67431 1.55029,0 2.76469,-0.55294 3.64319,-1.65881 0.88883,-1.11621 1.33325,-2.76986 1.33325,-4.96094 z m 34.11162,8.65064 h -2.91456 v -9.85987 c 0,-0.74414 -0.0362,-1.46244 -0.10852,-2.1549 -0.062,-0.69247 -0.20153,-1.24541 -0.41858,-1.65882 -0.23771,-0.44441 -0.57877,-0.78031 -1.02319,-1.00769 -0.44441,-0.22737 -1.0852,-0.34106 -1.92236,-0.34106 -0.81649,0 -1.63297,0.2067 -2.44946,0.62011 -0.81649,0.40308 -1.63298,0.91985 -2.44947,1.5503 0.031,0.23771 0.0568,0.51676 0.0775,0.83716 0.0207,0.31005 0.031,0.62011 0.031,0.93017 v 11.0846 h -2.91455 v -9.85987 c 0,-0.76481 -0.0362,-1.48828 -0.10852,-2.17041 -0.062,-0.69246 -0.20153,-1.2454 -0.41858,-1.65881 -0.23771,-0.44442 -0.57878,-0.77515 -1.02319,-0.99219 -0.44442,-0.22737 -1.08521,-0.34106 -1.92236,-0.34106 -0.79582,0 -1.59681,0.19637 -2.40296,0.58911 -0.79581,0.39274 -1.59163,0.894 -2.38745,1.50378 v 12.92945 h -2.91455 v -17.31678 h 2.91455 v 1.92237 c 0.90951,-0.75448 1.81384,-1.34359 2.71301,-1.76734 0.90951,-0.42375 1.87586,-0.63562 2.89905,-0.63562 1.17822,0 2.17558,0.24805 2.99207,0.74414 0.82682,0.49609 1.44177,1.18339 1.84485,2.06189 1.17822,-0.99219 2.25309,-1.70532 3.2246,-2.1394 0.97152,-0.44442 2.01022,-0.66663 3.11609,-0.66663 1.90169,0 3.30213,0.57878 4.2013,1.73633 0.90951,1.14722 1.36426,2.75436 1.36426,4.82141 z m 22.17435,-8.79017 c 0,1.44694 -0.20671,2.74919 -0.62012,3.90674 -0.40307,1.15755 -0.95084,2.12907 -1.64331,2.91455 -0.73381,0.81649 -1.53996,1.43144 -2.41846,1.84485 -0.87849,0.40308 -1.84484,0.60462 -2.89904,0.60462 -0.98185,0 -1.83968,-0.11886 -2.57349,-0.35657 -0.73381,-0.22738 -1.45728,-0.53744 -2.17041,-0.93018 l -0.18603,0.80616 h -2.72852 v -24.12256 h 2.91455 v 8.61963 c 0.81649,-0.67179 1.68465,-1.21956 2.60449,-1.64331 0.91984,-0.43409 1.95337,-0.65113 3.10059,-0.65113 2.04639,0 3.65869,0.78548 4.83691,2.35645 1.18856,1.57096 1.78284,3.78788 1.78284,6.65075 z m -3.00757,0.0775 c 0,-2.06706 -0.34106,-3.63286 -1.02319,-4.69739 -0.68213,-1.07487 -1.78284,-1.6123 -3.30213,-1.6123 -0.84749,0 -1.70532,0.18603 -2.57348,0.5581 -0.86817,0.36174 -1.67432,0.832 -2.41846,1.41077 v 9.92187 c 0.82682,0.37207 1.53479,0.63046 2.1239,0.77515 0.59945,0.14469 1.27641,0.21704 2.03089,0.21704 1.6123,0 2.8732,-0.5271 3.78271,-1.5813 0.91984,-1.06453 1.37976,-2.72851 1.37976,-4.99194 z m 23.63164,0.062 c 0,2.82153 -0.72347,5.04879 -2.17041,6.68176 -1.44694,1.63298 -3.38481,2.44947 -5.8136,2.44947 -2.44946,0 -4.39766,-0.81649 -5.8446,-2.44947 -1.43661,-1.63297 -2.15491,-3.86023 -2.15491,-6.68176 0,-2.82153 0.7183,-5.04879 2.15491,-6.68176 1.44694,-1.64331 3.39514,-2.46497 5.8446,-2.46497 2.42879,0 4.36666,0.82166 5.8136,2.46497 1.44694,1.63297 2.17041,3.86023 2.17041,6.68176 z m -3.00757,0 c 0,-2.24275 -0.43925,-3.90673 -1.31775,-4.99194 -0.8785,-1.09554 -2.09806,-1.64331 -3.65869,-1.64331 -1.5813,0 -2.8112,0.54777 -3.6897,1.64331 -0.86816,1.08521 -1.30224,2.74919 -1.30224,4.99194 0,2.17041 0.43925,3.81889 1.31775,4.94544 0.87849,1.11621 2.10322,1.67431 3.67419,1.67431 1.55029,0 2.76469,-0.55294 3.64319,-1.65881 0.88883,-1.11621 1.33325,-2.76986 1.33325,-4.96094 z" /><path
       id="path211"
       style="font-size:31.75px;font-family:sans-serif;-inkscape-font-specification:'sans-serif, Normal';text-align:center;text-anchor:middle;fill:#6683ff;fill-opacity:1;stroke:#000000;stroke-width:2.64583;stroke-dasharray:none;stroke-opacity:0.972549;paint-order:stroke markers fill"
       d="m 888.54232,424.30849 c -0.97245,10e-4 -1.94468,0.002 -2.91714,0.003 0.44676,9.59252 0.4386,19.16981 -0.0238,28.73261 0.97172,0.0541 1.94403,0.10527 2.9161,0.15297 v -5.2e-4 c 0.40963,-9.61755 0.41778,-19.24688 0.0248,-28.88816 z m -38.98581,0.61734 c -2.3258,0.10051 -3.6094,0.59511 -4.69267,1.65126 -1.38184,1.33477 -2.50787,3.13852 -2.36833,5.07359 0.12153,1.68534 0.6495,3.07742 1.63246,4.20543 0.99055,1.11561 2.47758,1.9857 4.48087,2.59002 0.99268,0.29102 1.92759,0.54162 2.80913,0.75086 0.89135,0.20995 1.71588,0.45301 2.47323,0.73122 0.99978,0.36281 1.73656,0.82333 2.20813,1.38441 0.48142,0.56151 0.70218,1.39632 0.64338,2.49804 -0.0683,1.28013 -0.66837,2.25383 -1.78336,2.89956 -1.1066,0.6479 -2.60598,0.85016 -4.48655,0.61702 -1.32961,-0.16484 -2.71643,-0.6201 -4.1708,-1.34824 -1.45377,-0.72783 -2.70493,-1.64905 -3.77445,-2.74918 -0.0711,-0.009 -0.14232,-0.0168 -0.21342,-0.0258 -0.10248,1.26618 -0.23707,2.52951 -0.40411,3.79046 1.27798,0.80086 2.54517,1.45961 3.8132,1.96629 1.27634,0.5074 2.74261,0.88568 4.39457,1.11621 1.54031,0.21497 2.87933,0.1963 4.01422,-0.0605 1.14443,-0.2553 2.16325,-0.69347 3.05046,-1.31465 0.80996,-0.57337 1.45738,-1.31991 1.93373,-2.23655 0.48645,-0.91541 0.75146,-1.86957 0.79686,-2.85254 0.0835,-1.80812 -0.31618,-3.25046 -1.15807,-4.30827 -0.84271,-1.05885 -2.11517,-1.8777 -3.80701,-2.46445 -0.83558,-0.28167 -1.85416,-0.56683 -3.05717,-0.85524 -1.20265,-0.28832 -2.13148,-0.52595 -2.78536,-0.71417 -1.23633,-0.37219 -2.10875,-0.85266 -2.61948,-1.43867 -0.51165,-0.58704 -0.79337,-1.36712 -0.86197,-2.34869 -0.0767,-1.0975 0.32907,-1.97874 1.24386,-2.66134 0.87413,-0.64486 1.62528,-0.71015 3.36615,-0.54067 1.74087,0.16947 2.29366,1.60415 2.70376,1.89563 0.4329,0.30775 3.42442,2.13556 5.84822,1.85828 0.3128,-0.0358 0.87715,-0.0746 1.12035,-0.57568 0.4347,-0.89522 -1.15394,-2.2536 -1.15394,-2.2536 0,0 -0.5505,-0.80385 -0.9188,-2.09342 -0.2445,-0.85606 -5.95128,-2.28714 -8.27709,-2.18662 z m 87.10018,1.56444 -2.90628,0.009 c -0.0723,1.98504 -0.12682,3.96948 -0.16382,5.95365 -0.64977,0.009 -1.29995,0.0168 -1.94975,0.0248 -0.0167,0.97985 -0.0292,1.95968 -0.0382,2.93936 0.64862,-0.011 1.29704,-0.0226 1.94562,-0.0346 -0.0364,3.67084 -0.0122,7.3403 0.0724,11.00812 0.0578,2.50682 0.583,4.31004 1.54822,5.39502 0.96621,1.08609 2.34195,1.57315 4.11138,1.46089 0.50694,-0.0322 1.07786,-0.12426 1.71256,-0.27647 0.64493,-0.15289 1.23585,-0.33355 1.77301,-0.54105 l 5.2e-4,-10e-4 c -0.0614,-1.0221 -0.11643,-2.04442 -0.16433,-3.06699 -0.0514,0.004 -0.1026,0.007 -0.154,0.0103 -0.2209,0.12282 -0.58469,0.28473 -1.09088,0.48576 -0.50693,0.18894 -0.99729,0.29755 -1.47072,0.32505 -0.81302,0.0473 -1.42473,-0.0287 -1.83503,-0.22738 -0.40048,-0.21145 -0.72325,-0.55681 -0.96686,-1.03611 -0.26545,-0.51502 -0.42758,-1.0731 -0.48628,-1.67277 -0.0589,-0.61018 -0.10275,-1.4604 -0.12505,-2.53938 -0.0647,-3.12551 -0.0797,-6.2525 -0.0444,-9.38082 1.98128,-0.0413 3.96257,-0.0873 5.94331,-0.13798 0.0136,-0.95805 0.033,-1.9163 0.0584,-2.87476 -1.98462,0.0365 -3.96967,0.0695 -5.95467,0.0992 0.0417,-1.97342 0.1035,-3.94707 0.185,-5.9216 z m -80.67104,1.44642 c 0.2657,0.002 0.61503,0.1982 0.88263,0.52607 0.2189,0.26813 0.39067,0.96221 0.39067,0.96221 0,0 -0.76963,0.18661 -1.30793,-0.45113 -0.2164,-0.25622 -0.46016,-0.83243 -0.16536,-0.99219 0.058,-0.0313 0.12559,-0.0455 0.19999,-0.045 z m 120.17974,3.43235 c -0.90846,0.0341 -1.81634,0.26783 -2.71766,0.71055 -0.88872,0.43073 -1.93306,1.15852 -3.10524,2.19367 0.0297,-0.89904 0.0713,-1.79891 0.12506,-2.69958 -0.9601,0.033 -1.92014,0.0652 -2.88045,0.0966 -0.34322,6.18591 -0.16079,12.33797 0.54777,18.45624 0.96575,-0.12139 1.93102,-0.24566 2.89595,-0.3731 -0.52528,-4.27557 -0.77224,-8.57018 -0.74104,-12.88345 0.76767,-0.71114 1.57207,-1.29216 2.40657,-1.74667 0.835,-0.46539 1.69746,-0.71764 2.58279,-0.76584 0.54951,-0.03 1.02207,-0.0298 1.41697,5.2e-4 0.4056,0.0192 0.82009,0.0685 1.24385,0.14779 0.0509,-0.003 0.10206,-0.006 0.15296,-0.009 0.0338,-1.00527 0.0861,-2.01185 0.1571,-3.01998 -0.44435,-0.0553 -0.77689,-0.0899 -1.00046,-0.10231 -0.22227,-0.0228 -0.584,-0.0245 -1.08417,-0.006 z m -22.22138,0.14986 c -2.42461,0.0558 -4.3971,1.03337 -5.86476,2.97243 -1.45482,1.92366 -2.19034,4.54634 -2.12804,7.8202 0.0623,3.27388 0.89658,5.82106 2.4381,7.59075 1.55539,1.77302 3.58498,2.52669 6.03115,2.28823 2.42977,-0.23686 4.26671,-1.36177 5.55522,-3.30161 1.29261,-1.94602 1.82768,-4.43551 1.74408,-7.52564 -0.0836,-3.09033 -0.75053,-5.48992 -2.12855,-7.2502 -1.37429,-1.76739 -3.23868,-2.64956 -5.6472,-2.59416 z m -81.00281,0.11627 c -2.4998,-0.0513 -4.46569,0.86164 -5.94744,2.68821 -1.47436,1.83038 -2.19438,4.30173 -2.27738,7.46415 -0.0839,3.19674 0.53944,5.72169 2.01331,7.62589 1.46941,1.88571 3.62698,2.99279 6.5009,3.23701 1.12563,0.0957 2.21183,0.0218 3.25561,-0.22479 1.04366,-0.24658 2.06934,-0.57906 3.07527,-0.99891 0.0688,-1.24209 0.12753,-2.48455 0.17673,-3.72742 -0.0512,-0.003 -0.10228,-0.006 -0.15348,-0.009 -0.52292,0.50415 -1.39372,0.99959 -2.61224,1.47381 -1.2083,0.4631 -2.40137,0.64607 -3.57239,0.55707 -0.88347,-0.0672 -1.68607,-0.27431 -2.40709,-0.6165 -0.71096,-0.34147 -1.31508,-0.81586 -1.81488,-1.4211 -0.51982,-0.61886 -0.91327,-1.38404 -1.18907,-2.29547 -0.2753,-0.92332 -0.3922,-1.98306 -0.3607,-3.18585 4.19232,0.26288 8.3888,0.48664 12.58838,0.67179 0.0116,-0.61926 0.0209,-1.23882 0.0279,-1.85828 0.0325,-2.95183 -0.62216,-5.25561 -1.90634,-6.88123 -1.2774,-1.62973 -3.08518,-2.45168 -5.39709,-2.49908 z m 29.9744,0.36846 c -2.49819,-0.0104 -4.50387,0.98932 -6.02392,2.98896 -1.50975,1.99965 -2.25979,4.70109 -2.29289,8.12044 -0.0334,3.45688 0.70021,6.15031 2.26705,8.08684 1.56506,1.92147 3.79181,2.9285 6.67556,2.9745 1.12976,0.018 2.2097,-0.13918 3.23753,-0.47078 1.02786,-0.33161 2.03323,-0.74884 3.01583,-1.2516 0.003,-1.29275 0.005,-2.58554 0.007,-3.87831 -0.0514,-8e-5 -0.10311,-4.3e-4 -0.15451,-5.2e-4 -0.50391,0.55358 -1.35415,1.11996 -2.55127,1.69137 -1.18735,0.55915 -2.37028,0.82967 -3.54552,0.81287 -0.8865,-0.0127 -1.69894,-0.17739 -2.43603,-0.49299 -0.72681,-0.31541 -1.35288,-0.78106 -1.87792,-1.39475 -0.5455,-0.62679 -0.96905,-1.4199 -1.27382,-2.37918 -0.30459,-0.97174 -0.44912,-2.10237 -0.43822,-3.39256 4.20568,0.0793 8.41287,0.1205 12.62042,0.1235 l 10e-4,-1.92959 c 0.002,-3.06451 -0.62481,-5.43098 -1.88308,-7.09724 -1.24888,-1.66733 -3.03241,-2.50096 -5.34748,-2.51096 z m 20.10937,0.0687 c -2.53035,0.017 -4.57532,1.00492 -6.12573,2.97811 -1.53841,1.9709 -2.30715,4.68661 -2.30115,8.13955 0.003,1.85272 0.21302,3.47177 0.63045,4.85449 0.41752,1.38302 1.00697,2.52389 1.76889,3.42098 0.75155,0.89716 1.65434,1.5632 2.70732,1.99523 1.05272,0.41943 2.20784,0.61212 3.46181,0.57722 0.98438,-0.0274 1.90816,-0.21349 2.76882,-0.555 0.87127,-0.34196 1.78363,-0.81168 2.7373,-1.4087 -0.0393,-1.28842 -0.073,-2.57728 -0.10077,-3.86592 -0.0513,0.002 -0.10269,0.003 -0.15399,0.005 -0.21102,0.21859 -0.49861,0.48339 -0.86197,0.79427 -0.36368,0.29846 -0.75333,0.58537 -1.16943,0.86041 -0.477,0.31438 -1.01723,0.57459 -1.62109,0.77928 -0.6039,0.20472 -1.19994,0.31416 -1.78749,0.32866 -1.69093,0.0417 -3.01649,-0.61131 -3.96617,-1.95543 -0.93934,-1.3566 -1.41468,-3.31059 -1.42368,-5.85339 -0.009,-2.61811 0.46291,-4.60572 1.40456,-5.9583 0.95275,-1.36648 2.24879,-2.05352 3.884,-2.06912 0.88917,-0.008 1.79688,0.20733 2.72387,0.64596 0.9374,0.43859 1.8422,1.06851 2.71818,1.88825 0.051,-10e-4 0.10186,-0.002 0.15296,-0.003 0.003,-1.30187 0.0128,-2.60361 0.0279,-3.9057 -0.78168,-0.47642 -1.64599,-0.87961 -2.59364,-1.20871 -0.93745,-0.32921 -1.89794,-0.49121 -2.88096,-0.48421 z m 30.8255,2.29443 c 1.54267,-0.051 2.72634,0.52683 3.57498,1.71307 0.8516,1.17857 1.26645,2.9983 1.33015,5.48804 0.0623,2.43224 -0.26645,4.29202 -1.0697,5.61465 -0.79099,1.30567 -1.94732,2.04043 -3.48971,2.17506 -1.56084,0.13624 -2.82422,-0.39578 -3.76411,-1.60921 -0.93841,-1.22253 -1.46014,-3.09384 -1.51154,-5.58932 -0.0531,-2.57818 0.38755,-4.51832 1.25574,-5.79138 0.88133,-1.28942 2.11314,-1.94931 3.67419,-2.00091 z m -80.9842,0.0362 c 1.53056,0.0447 2.6787,0.55901 3.43493,1.55753 0.76566,0.99782 1.15739,2.39406 1.15239,4.17959 -3.2617,-0.13376 -6.522,-0.28772 -9.77977,-0.46147 0.1375,-1.53583 0.64189,-2.80401 1.53427,-3.81734 0.90181,-1.0121 2.11664,-1.50331 3.65818,-1.45831 z m 29.91032,0.52555 c 1.53305,0.009 2.67334,0.52312 3.41994,1.5472 0.75647,1.02366 1.13922,2.46924 1.14722,4.33513 -3.26805,-0.0131 -6.53559,-0.0463 -9.8025,-0.0987 0.12886,-1.65148 0.64256,-3.02835 1.54823,-4.13567 0.91585,-1.10719 2.1436,-1.65696 3.68711,-1.64796 z"
       sodipodi:nodetypes="ccccscccscccccscssccccscccsscscssccssscscccccccsssccccccscccscccccsscssssccccccccscccccsscscssscsscscssccccscccccccsccscssccccscccccsccccssccsccccccsscscsccccccscscscscssccccscccccc" /></g></svg>
